<svg width="32" height="33" viewBox="0 0 32 33" fill="none" xmlns="http://www.w3.org/2000/svg">
<mask id="mask0_1085_48031" style="mask-type:alpha" maskUnits="userSpaceOnUse" x="13" y="10" width="13" height="15">
<rect x="13.6094" y="10.6807" width="12.3909" height="13.843" fill="#D9D9D9"/>
</mask>
<g mask="url(#mask0_1085_48031)">
<path d="M1.78809 10.6807H25.9682V24.5237H1.78809V10.6807Z" fill="#139B60"/>
<path d="M23.2409 15.0272V20.1753C22.7806 20.2725 22.3544 20.5016 22.017 20.8397C21.6799 21.1776 21.452 21.6039 21.3557 22.0641H6.4031C6.37207 21.9158 6.32721 21.7703 6.26892 21.6296C6.14617 21.3333 5.96626 21.0641 5.73946 20.8374C5.51266 20.6107 5.24341 20.4309 4.9471 20.3082C4.80644 20.25 4.66099 20.2052 4.5127 20.1742V15.0281C4.66106 14.9971 4.80656 14.9522 4.94727 14.894C5.24356 14.7712 5.51278 14.5913 5.73956 14.3646C5.96633 14.1378 6.14622 13.8686 6.26895 13.5723C6.32723 13.4316 6.37208 13.2861 6.40312 13.1377H21.3555C21.4517 13.598 21.6796 14.0245 22.0167 14.3625L22.3708 14.0094L22.0167 14.3625C22.3541 14.7007 22.7804 14.9299 23.2409 15.0272Z" fill="#40B86B" stroke="white"/>
<path d="M13.8781 20.514C15.487 20.514 16.7913 19.2097 16.7913 17.6007C16.7913 15.9918 15.487 14.6875 13.8781 14.6875C12.2691 14.6875 10.9648 15.9918 10.9648 17.6007C10.9648 19.2097 12.2691 20.514 13.8781 20.514Z" fill="#139B60"/>
</g>
<rect opacity="0.5" x="13.6094" y="10.6807" width="6.19544" height="13.843" fill="#066734"/>
<mask id="mask1_1085_48031" style="mask-type:alpha" maskUnits="userSpaceOnUse" x="6" y="8" width="13" height="15">
<rect x="6" y="8.72949" width="12.09" height="13.843" fill="#D9D9D9"/>
</mask>
<g mask="url(#mask1_1085_48031)">
<path d="M6 8.72949H30.1801V22.5725H6V8.72949Z" fill="#4FD79C"/>
<path d="M27.4528 13.075V18.2231C26.9925 18.3204 26.5663 18.5494 26.2289 18.8876C25.8919 19.2254 25.6639 19.6518 25.5676 20.112H10.615C10.584 19.9636 10.5391 19.8181 10.4808 19.6775C10.3581 19.3812 10.1782 19.112 9.95137 18.8853C9.72457 18.6585 9.45533 18.4787 9.15902 18.3561C9.01836 18.2979 8.87291 18.2531 8.72461 18.2221V13.076C8.87297 13.0449 9.01847 13.0001 9.15918 12.9418C9.45548 12.8191 9.7247 12.6392 9.95147 12.4124C10.1782 12.1856 10.3581 11.9164 10.4809 11.6201C10.5391 11.4794 10.584 11.3339 10.615 11.1855H25.5674C25.6636 11.6458 25.8916 12.0723 26.2286 12.4103L26.5827 12.0572L26.2286 12.4103C26.566 12.7486 26.9924 12.9778 27.4528 13.075Z" fill="#7CF4A7" stroke="white"/>
<path d="M18.09 18.5628C19.6989 18.5628 21.0032 17.2585 21.0032 15.6496C21.0032 14.0406 19.6989 12.7363 18.09 12.7363C16.4811 12.7363 15.1768 14.0406 15.1768 15.6496C15.1768 17.2585 16.4811 18.5628 18.09 18.5628Z" fill="#4FD79C"/>
</g>
</svg>
