<svg width="24" height="25" viewBox="0 0 24 25" fill="none" xmlns="http://www.w3.org/2000/svg">
<path fill-rule="evenodd" clip-rule="evenodd" d="M1.88664 9.5549C2.62923 7.95098 3.64253 6.8361 4.7159 5.75765C5.78927 4.67919 7.18786 3.52324 8.6741 2.6578C10.8604 1.38475 12.6822 2.0373 14.1889 2.85154C15.6956 3.6658 16.972 4.64039 18.0454 5.71888C19.1188 6.79737 20.2839 8.39552 20.7042 9.54855C21.4775 11.6693 21.682 13.0779 20.6292 15.0571C19.8926 16.442 19.0416 17.4272 17.9682 18.5057C17.7975 18.6771 17.6247 18.8541 17.4491 19.034L17.4491 19.034C16.5201 19.9854 15.5113 21.0185 14.3143 21.7555C12.6386 22.7872 10.4887 22.4856 8.48125 21.528C6.97641 20.8101 6.19948 20.0878 5.12612 19.0094C4.05272 17.9309 2.67948 16.3842 2.04091 15.0571C1.11029 13.1231 0.952866 11.5717 1.88664 9.5549ZM2.85851 9.68822C3.50629 8.28911 4.34344 7.17284 5.27977 6.23208C6.2161 5.2913 7.40774 4.27801 8.77935 3.67174C10.128 3.07558 12.5084 3.27073 13.59 3.84074C14.6716 4.41075 16.0178 5.40121 16.9541 6.34198C17.8905 7.28275 19.0856 8.60629 19.4523 9.6121C20.1267 11.4621 20.4995 12.6196 19.9588 14.4526C19.5832 15.7257 18.4538 17.1044 17.5544 18.0452C17.4988 18.1033 17.4396 18.1655 17.377 18.2312C16.4263 19.2293 14.7077 21.0337 13.5151 21.5184C11.6981 22.2567 9.89865 21.4474 8.33452 20.4969C7.01338 19.6941 6.25184 18.9492 5.38928 18.0084C4.52673 17.0677 3.55012 15.6455 2.99309 14.4879C2.18132 12.8009 2.04397 11.4475 2.85851 9.68822Z" fill="#28ACD4"/>
<path fill-rule="evenodd" clip-rule="evenodd" d="M22.1095 9.5549C21.3669 7.95098 20.3536 6.8361 19.2802 5.75765C18.2068 4.67919 16.8082 3.52324 15.322 2.6578C13.1357 1.38475 11.3139 2.0373 9.80722 2.85154C8.30052 3.6658 7.02411 4.64039 5.95071 5.71888C4.87734 6.79737 3.71224 8.39552 3.29185 9.54855C2.51864 11.6693 2.3141 13.0779 3.36688 15.0571C4.10349 16.442 4.95451 17.4272 6.02788 18.5057C6.19856 18.6771 6.37135 18.8541 6.547 19.034L6.54702 19.034C7.476 19.9854 8.48477 21.0185 9.68182 21.7555C11.3575 22.7872 13.5074 22.4856 15.5148 21.528C17.0197 20.8101 17.7966 20.0878 18.87 19.0094C19.9434 17.9309 21.3166 16.3842 21.9552 15.0571C22.8858 13.1231 23.0432 11.5717 22.1095 9.5549ZM21.139 9.68977C20.4912 8.29066 19.6541 7.17439 18.7177 6.23363C17.7814 5.29285 16.5898 4.27956 15.2181 3.67329C13.8695 3.07713 11.4891 3.27228 10.4075 3.84229C9.32589 4.4123 7.9797 5.40275 7.04336 6.34353C6.10703 7.2843 4.91191 8.60784 4.54523 9.61365C3.87079 11.4637 3.49795 12.6211 4.0387 14.4542C4.4143 15.7272 5.54367 17.1059 6.44312 18.0467C6.49861 18.1048 6.55779 18.1669 6.6203 18.2325L6.62054 18.2328C7.57117 19.2308 9.28985 21.0353 10.4824 21.5199C12.2994 22.2583 14.0988 21.449 15.663 20.4985C16.9841 19.6956 17.7457 18.9508 18.6082 18.01C19.4708 17.0692 20.4474 15.6471 21.0044 14.4895C21.8162 12.8024 21.9535 11.449 21.139 9.68977Z" fill="#28ACD4"/>
<mask id="mask0_5168_116862" style="mask-type:luminance" maskUnits="userSpaceOnUse" x="0" y="0" width="24" height="25">
<path fill-rule="evenodd" clip-rule="evenodd" d="M0 12.5341L0 12.3585C0.0141781 11.4346 0.252448 10.4901 0.748119 9.43779C1.63488 7.55468 2.96651 6.24584 4.24829 4.97951C5.53033 3.71333 7.07922 2.35612 8.85423 1.34013C11.4653 -0.154562 13.6411 0.611654 15.4406 1.56762C17.2399 2.52354 18.7644 3.66785 20.0464 4.934C21.3283 6.20018 22.7198 8.07666 23.222 9.4304C24.1453 11.9203 24.3896 13.5741 23.1323 15.8977C22.2525 17.5237 21.2362 18.6804 19.9541 19.9466C18.6722 21.2128 17.1378 22.4616 15.4406 23.4951C13.065 24.9416 10.9676 24.7254 8.62387 23.4951C6.75728 22.5149 5.89892 21.8041 4.61684 20.538C3.33499 19.2718 1.69497 17.4559 0.932283 15.8977C0.34608 14.7003 0.0167704 13.6277 0 12.5341ZM1.34158 9.45674C0.368616 11.5222 0.532548 13.111 1.50219 15.0918C2.16749 16.451 3.59811 18.0351 4.71634 19.1396C5.83469 20.2441 6.58344 20.8641 8.2117 21.7191C10.2562 22.7924 12.0858 22.981 14.1581 21.7191C15.6386 20.8176 16.9772 19.7282 18.0954 18.6237C19.2137 17.5193 20.1003 16.5102 20.8677 15.0918C21.9645 13.0648 21.7514 11.6222 20.9459 9.45021C20.5079 8.26936 19.2941 6.63244 18.1758 5.52799C17.0576 4.42342 15.7278 3.42523 14.1581 2.59132C12.5885 1.75745 10.6903 1.08905 8.41266 2.39286C6.86434 3.27922 5.51316 4.46304 4.39482 5.56754C3.27671 6.67226 2.11511 7.81397 1.34158 9.45674Z" fill="white"/>
</mask>
<g mask="url(#mask0_5168_116862)">
<path d="M0 24.5035L66.6813 24.5035V0.498047L0 0.498047L0 24.5035Z" fill="#28ACD4"/>
</g>
<mask id="mask1_5168_116862" style="mask-type:luminance" maskUnits="userSpaceOnUse" x="1" y="2" width="23" height="21">
<path fill-rule="evenodd" clip-rule="evenodd" d="M1.9082 12.5255L1.9082 12.3779C1.92126 11.6019 2.14061 10.8086 2.59693 9.92458C3.41328 8.34276 4.63919 7.24335 5.8192 6.17963C6.99945 5.11603 8.42537 3.97598 10.0595 3.12255C12.4632 1.867 14.4663 2.51063 16.1229 3.31364C17.7794 4.11661 19.1828 5.07783 20.363 6.1414C21.5432 7.20499 22.8242 8.78123 23.2865 9.91838C24.1365 12.0099 24.3614 13.399 23.2039 15.3509C22.394 16.7167 21.4584 17.6884 20.2781 18.752C19.098 19.8156 17.6853 20.8646 16.1229 21.7327C13.9359 22.9478 12.005 22.7662 9.84739 21.7327C8.12899 20.9093 7.33878 20.3123 6.15849 19.2487C4.97841 18.1851 3.4686 16.6598 2.76647 15.3509C2.22681 14.3451 1.92364 13.4441 1.9082 12.5255ZM3.13572 9.93944C2.24 11.6744 2.39092 13.009 3.28358 14.6729C3.89605 15.8147 5.21309 17.1452 6.24254 18.0731C7.2721 19.0008 7.9614 19.5216 9.46039 20.2399C11.3426 21.1414 13.0269 21.2998 14.9346 20.2399C16.2977 19.4826 17.5299 18.5675 18.5594 17.6397C19.5889 16.712 20.4051 15.8643 21.1116 14.6729C22.1213 12.9702 21.9251 11.7584 21.1836 9.93396C20.7803 8.94205 19.6629 7.56703 18.6334 6.63929C17.6039 5.71145 16.3798 4.87297 14.9346 4.17249C13.4897 3.47204 11.7422 2.91058 9.64539 4.00578C8.22 4.75032 6.9761 5.74474 5.94655 6.67251C4.91721 7.60048 3.84783 8.55951 3.13572 9.93944Z" fill="white"/>
</mask>
<g mask="url(#mask1_5168_116862)">
<path d="M1.9082 22.5806L63.2954 22.5806V2.41602L1.9082 2.41602L1.9082 22.5806Z" fill="#28ACD4"/>
</g>
<mask id="mask2_5168_116862" style="mask-type:luminance" maskUnits="userSpaceOnUse" x="1" y="0" width="22" height="21">
<path fill-rule="evenodd" clip-rule="evenodd" d="M1.9082 10.5536L1.9082 10.7012C1.92013 11.4772 2.12057 12.2705 2.53753 13.1545C3.28348 14.7363 4.40367 15.8358 5.48191 16.8995C6.56038 17.9631 7.86332 19.1031 9.35648 19.9566C11.5529 21.2121 13.3833 20.5685 14.897 19.7655C16.4106 18.9625 17.693 18.0013 18.7714 16.9377C19.8498 15.8741 21.0204 14.2979 21.4428 13.1607C22.2195 11.0692 22.425 9.68006 21.3674 7.72816C20.6273 6.36236 19.7723 5.39069 18.6939 4.32713C17.6155 3.2635 16.3247 2.21454 14.897 1.34641C12.8986 0.131289 11.1342 0.312939 9.16271 1.34641C7.59251 2.16975 6.87044 2.76679 5.79194 3.83038C4.71363 4.89397 3.33403 6.41931 2.69245 7.72816C2.19933 8.73404 1.92231 9.63496 1.9082 10.5536ZM3.0303 13.1347C2.21182 11.3997 2.34973 10.0651 3.1654 8.40123C3.72506 7.25946 4.92851 5.92889 5.86918 5.00105C6.80994 4.07328 7.4398 3.55249 8.80951 2.83427C10.5294 1.93272 12.0684 1.77429 13.8117 2.83427C15.0571 3.59157 16.1831 4.50661 17.1238 5.43445C18.0645 6.36216 18.8104 7.2098 19.4559 8.40123C20.3785 10.1039 20.1993 11.3157 19.5217 13.1402C19.1532 14.1321 18.1322 15.5071 17.1914 16.4348C16.2508 17.3627 15.1321 18.2012 13.8117 18.9016C12.4913 19.6021 10.8946 20.1635 8.97856 19.0683C7.6761 18.3238 6.53947 17.3294 5.59871 16.4016C4.65815 15.4736 3.68099 14.5146 3.0303 13.1347Z" fill="white"/>
</mask>
<g mask="url(#mask2_5168_116862)">
<path d="M1.9082 0.498482L58.0013 0.498482V20.6631L1.9082 20.6631L1.9082 0.498482Z" fill="#28ACD4"/>
</g>
<mask id="mask3_5168_116862" style="mask-type:luminance" maskUnits="userSpaceOnUse" x="0" y="0" width="24" height="25">
<path fill-rule="evenodd" clip-rule="evenodd" d="M23.9961 12.5351V12.3594C23.9819 11.4355 23.7436 10.4911 23.248 9.43877C22.3612 7.55565 21.0296 6.24682 19.7478 4.98049C18.4658 3.7143 16.9169 2.3571 15.1419 1.34111C12.5308 -0.153585 10.355 0.612631 8.55552 1.5686C6.75615 2.52452 5.23169 3.66883 3.94973 4.93498C2.6678 6.20116 1.27626 8.07764 0.774134 9.43138C-0.149239 11.9212 -0.393534 13.575 0.863806 15.8987C1.74355 17.5247 2.75992 18.6814 4.04196 19.9476C5.32385 21.2138 6.85831 22.4626 8.55552 23.496C10.9311 24.9426 13.0285 24.7264 15.3722 23.496C17.2388 22.5159 18.0972 21.8051 19.3793 20.5389C20.6611 19.2728 22.3011 17.4569 23.0638 15.8987C23.65 14.7012 23.9793 13.6287 23.9961 12.5351ZM22.6534 9.45751C23.6263 11.523 23.4624 13.1118 22.4928 15.0926C21.8275 16.4518 20.3968 18.0358 19.2786 19.1404C18.1603 20.2449 17.4115 20.8649 15.7833 21.7199C13.7387 22.7932 11.9092 22.9818 9.83689 21.7199C8.35633 20.8183 7.01779 19.729 5.89957 18.6244C4.78127 17.52 3.89461 16.5109 3.12723 15.0926C2.03046 13.0656 2.24352 11.6229 3.049 9.45098C3.48704 8.27013 4.70082 6.63321 5.81916 5.52875C6.93739 4.42418 8.26715 3.42599 9.83689 2.59208C11.4065 1.75822 13.3046 1.08981 15.5823 2.39363C17.1306 3.27998 18.4818 4.46381 19.6001 5.56831C20.7182 6.67302 21.8798 7.81473 22.6534 9.45751Z" fill="white"/>
</mask>
<g mask="url(#mask3_5168_116862)">
<path d="M23.9961 24.5045L-42.6852 24.5045V0.499023L23.9961 0.499023V24.5045Z" fill="#28ACD4"/>
</g>
<mask id="mask4_5168_116862" style="mask-type:luminance" maskUnits="userSpaceOnUse" x="3" y="3" width="18" height="19">
<path fill-rule="evenodd" clip-rule="evenodd" d="M19.5068 14.6025C18.8838 15.979 17.9486 16.9359 17.0481 17.8615C16.1477 18.7871 15.0598 19.7791 13.813 20.5219C11.979 21.6145 10.4508 21.0544 9.18689 20.3556C7.92299 19.6568 6.85225 18.8203 5.95181 17.8947C5.0514 16.9691 4.07404 15.5975 3.7214 14.6079C3.07278 12.7878 2.90119 11.5789 3.78433 9.88025C4.40224 8.69165 5.11611 7.84612 6.01654 6.92054C6.91695 5.99493 7.99476 5.08211 9.18689 4.32666C10.8555 3.26921 12.2908 3.50472 13.9748 4.32666C15.2372 4.9428 15.8889 5.56264 16.7893 6.48822C17.6897 7.41382 18.8417 8.74126 19.3774 9.88025C20.158 11.5401 20.2901 12.8716 19.5068 14.6025ZM18.71 14.4901C19.3933 12.9801 19.2781 11.8187 18.5972 10.3707C18.1299 9.37718 17.125 8.21924 16.3396 7.41182C15.5541 6.60438 15.0282 6.1512 13.8844 5.5262C12.4485 4.74162 10.2911 5.1313 9.70778 5.5262C8.7617 6.1668 7.72767 6.98152 6.94222 7.78893C6.15677 8.59635 5.53404 9.33391 4.99499 10.3707C4.22463 11.8525 4.37431 12.907 4.9401 14.4948C5.24772 15.3581 6.1003 16.5545 6.88575 17.3619C7.67123 18.1694 8.80048 19.0194 9.70778 19.5086C10.6151 19.9978 12.6119 20.1653 13.7433 19.6537C14.8939 19.1333 15.8189 18.2206 16.6044 17.4132C17.3898 16.6058 18.1666 15.6908 18.71 14.4901Z" fill="white"/>
</mask>
<g mask="url(#mask4_5168_116862)">
<path d="M-0.00390625 24.5065L66.6774 24.5065V0.500977L-0.00390625 0.500977L-0.00390625 24.5065Z" fill="#28ACD4"/>
</g>
<mask id="mask5_5168_116862" style="mask-type:luminance" maskUnits="userSpaceOnUse" x="3" y="3" width="18" height="19">
<path fill-rule="evenodd" clip-rule="evenodd" d="M4.48931 14.6025C5.11227 15.979 6.04754 16.9359 6.94794 17.8615C7.84838 18.7871 8.93628 19.7791 10.1831 20.5219C12.017 21.6145 13.5453 21.0544 14.8092 20.3556C16.0731 19.6568 17.1438 18.8203 18.0443 17.8947C18.9447 16.9691 19.9221 15.5975 20.2747 14.6079C20.9233 12.7878 21.0949 11.5789 20.2118 9.88025C19.5938 8.69165 18.88 7.84612 17.9796 6.92054C17.0791 5.99493 16.0013 5.08211 14.8092 4.32666C13.1406 3.26921 11.7053 3.50472 10.0213 4.32666C8.7589 4.9428 8.1072 5.56264 7.20679 6.48822C6.30635 7.41382 5.1544 8.74126 4.61872 9.88025C3.83806 11.5401 3.706 12.8716 4.48931 14.6025ZM5.28328 14.4913C4.59999 12.9814 4.71519 11.8199 5.39618 10.372C5.86347 9.37843 6.86832 8.22048 7.65378 7.41307C8.43926 6.60562 8.96518 6.15244 10.109 5.52745C11.5449 4.74286 13.7023 5.13254 14.2856 5.52745C15.2316 6.16804 16.2657 6.98276 17.0511 7.79018C17.8366 8.59759 18.4593 9.33515 18.9983 10.372C19.7687 11.8538 19.619 12.9083 19.0532 14.496C18.7456 15.3593 17.893 16.5558 17.1076 17.3632C16.3221 18.1706 15.1929 19.0207 14.2856 19.5099C13.3782 19.9991 11.3814 20.1666 10.2501 19.6549C9.09947 19.1346 8.17444 18.2219 7.38898 17.4145C6.60353 16.607 5.82671 15.6921 5.28328 14.4913Z" fill="white"/>
</mask>
<g mask="url(#mask5_5168_116862)">
<path d="M23.9941 24.5084L-42.6872 24.5084V0.50293L23.9941 0.50293V24.5084Z" fill="#28ACD4"/>
</g>
<mask id="mask6_5168_116862" style="mask-type:luminance" maskUnits="userSpaceOnUse" x="2" y="3" width="20" height="21">
<path fill-rule="evenodd" clip-rule="evenodd" d="M21.2238 15.597C20.5016 17.1599 19.4171 18.2462 18.3732 19.2972C17.329 20.3481 16.0675 21.4745 14.6219 22.3177C12.4954 23.5583 10.7233 22.9223 9.25772 22.1289C7.79225 21.3356 6.55066 20.3858 5.50658 19.335C4.46253 18.2841 3.32915 16.7267 2.92026 15.6032C2.16823 13.5367 2.3212 12.2423 3.17211 10.3336C3.80091 8.92318 4.53762 7.92604 5.5817 6.87516C6.62578 5.82428 7.68764 4.93501 9.09877 4.12629C10.9541 3.06306 12.9803 3.0266 14.8095 3.93008C16.3551 4.69348 17.0288 5.33347 18.073 6.38435C19.117 7.43523 20.4527 8.94233 21.0738 10.2355C21.9792 12.1201 22.1322 13.6318 21.2238 15.597ZM20.7428 15.5799C21.5352 13.8657 21.4017 12.547 20.612 10.9031C20.0702 9.77495 18.905 8.46028 17.9943 7.54354C17.0835 6.62685 16.4737 6.11229 15.1475 5.40266C13.4824 4.51189 11.9923 4.35538 10.3046 5.40266C9.0988 6.15091 7.90364 7.00897 6.99288 7.92566C6.08212 8.84234 5.46497 9.72591 4.83998 10.9031C3.94676 12.5854 4.12025 13.7827 4.77627 15.5853C5.13303 16.5654 6.12157 17.924 7.0324 18.8406C7.94312 19.7574 9.02613 20.5858 10.3046 21.2779C11.5829 21.97 13.1288 22.5248 14.9839 21.4427C16.2449 20.707 17.3453 19.7245 18.2562 18.8078C19.1668 17.8909 20.1128 16.9434 20.7428 15.5799Z" fill="white"/>
</mask>
<g mask="url(#mask6_5168_116862)">
<path d="M-0.00585937 24.5045L66.6755 24.5045V0.499023L-0.00585938 0.499023L-0.00585937 24.5045Z" fill="#28ACD4"/>
</g>
<mask id="mask7_5168_116862" style="mask-type:luminance" maskUnits="userSpaceOnUse" x="2" y="1" width="21" height="23">
<path fill-rule="evenodd" clip-rule="evenodd" d="M2.81164 15.1031C3.58234 16.7709 4.73969 17.9301 5.85371 19.0517C6.96795 20.1731 8.31412 21.3752 9.85682 22.275C12.1261 23.5989 14.0172 22.9202 15.5811 22.0736C17.145 21.2269 18.4699 20.2134 19.5841 19.092C20.6983 17.9706 21.9077 16.3086 22.3441 15.1096C23.1466 12.9045 22.9834 11.5232 22.0753 9.48636C21.4043 7.9812 20.6181 6.9171 19.504 5.79568C18.3898 4.67424 17.2566 3.72527 15.7508 2.86226C13.7709 1.72764 11.6087 1.68873 9.65661 2.65286C8.0072 3.46752 7.2883 4.15047 6.17402 5.27191C5.05994 6.39334 3.63457 8.00163 2.9717 9.38166C2.0056 11.3928 1.84233 13.0059 2.81164 15.1031ZM3.3197 15.0745C2.47407 13.2451 2.61655 11.838 3.45928 10.0836C4.03751 8.87978 5.28089 7.47684 6.25276 6.49855C7.22473 5.52032 7.87548 4.97122 9.29064 4.21394C11.0676 3.26336 12.6577 3.09635 14.4587 4.21394C15.7455 5.01242 17.0209 5.9281 17.9928 6.90633C18.9647 7.88455 19.6233 8.82744 20.2902 10.0836C21.2434 11.8789 21.0583 13.1566 20.3582 15.0803C19.9775 16.1261 18.9226 17.5759 17.9506 18.5541C16.9787 19.5324 15.823 20.4165 14.4587 21.155C13.0946 21.8936 11.4449 22.4856 9.4653 21.3308C8.11963 20.5458 6.94529 19.4973 5.97332 18.5191C5.00155 17.5406 3.99199 16.5295 3.3197 15.0745Z" fill="white"/>
</mask>
<g mask="url(#mask7_5168_116862)">
<path d="M25.4609 24.5996L-45.6972 24.5996V-1.01758L25.4609 -1.01758V24.5996Z" fill="#28ACD4"/>
</g>
</svg>
