<svg width="32" height="32" viewBox="0 0 32 32" fill="none" xmlns="http://www.w3.org/2000/svg">
<path d="M25.9976 21.7482C26.3332 22.2382 26.3671 23.0103 26.0105 23.6088C25.6924 24.1433 23.7865 26.1943 23.1663 26.8533C22.6288 27.426 21.9032 27.9993 21.1887 27.9993H6.23572C4.21482 27.9993 4.09277 27.3011 4.09277 25.7223V19.3186C4.09277 17.7062 4.55971 17.2402 5.93976 17.2402H21.1888C21.9033 17.2402 22.5388 17.6119 23.2686 18.3682C23.8881 19.0103 25.7397 21.3712 25.9976 21.7482Z" fill="#33CCCC"/>
<path d="M7.48274 19.7202C7.48274 19.675 7.48274 19.7224 7.48274 19.678C7.48274 19.4719 7.46579 19.2686 7.13478 19.2686H5.885C5.59462 19.2686 5.57617 19.4324 5.57617 19.6865V21.3788C6.18461 20.4926 6.85902 20.0807 7.48274 19.7202Z" fill="white"/>
<path d="M15.8669 25.8325V25.7417L15.8677 21.6684C15.8677 19.9601 15.1307 19.1064 13.6566 19.1064C13.2343 19.1064 12.8479 19.214 12.4975 19.4296C12.1466 19.645 11.8099 19.9463 11.4863 20.3326C11.3273 19.9127 11.0877 19.6035 10.7672 19.4047C10.4466 19.2058 10.0314 19.1068 9.52179 19.1068C8.93155 19.1068 8.24543 19.3176 7.75921 19.7251C7.65037 19.8361 5.57655 21.4997 5.57655 23.2084C5.57655 24.1451 5.57655 25.1394 5.57655 25.1394C5.57655 25.1394 5.57655 25.8004 5.57655 25.8164C5.57655 25.8993 5.53716 26.2141 5.88322 26.2141H7.18401C7.58847 26.2141 7.54892 25.9442 7.54892 25.8332C7.54892 25.806 7.54892 25.1234 7.54892 25.1234V21.6147C7.76835 21.3179 8.21718 20.5847 8.94592 20.5847C9.22559 20.5847 9.42715 20.6813 9.5502 20.8741C9.67375 21.0669 9.73574 21.3908 9.73574 21.8445V25.1387H9.73424C9.73424 25.1387 9.73424 25.7997 9.73424 25.8157C9.73424 25.8986 9.69485 26.2134 10.0409 26.2134H11.3254C11.7301 26.2134 11.6906 25.9435 11.6906 25.8325V25.7417H11.6921V21.6147C11.9273 21.3179 12.3962 20.5847 13.0889 20.5847C13.3741 20.5847 13.5796 20.6813 13.7057 20.8741C13.8314 21.0669 13.8943 21.3908 13.8943 21.8445V25.1387H13.893C13.893 25.1387 13.893 25.7997 13.893 25.8157C13.893 25.8986 13.8539 26.2134 14.1999 26.2134H15.501C15.9064 26.2134 15.8669 25.9435 15.8669 25.8325Z" fill="white"/>
<path fill-rule="evenodd" clip-rule="evenodd" d="M20.0876 26.1548C21.4605 26.1548 22.5687 25.4461 23.0314 24.1777C23.0624 24.0932 22.9837 23.9166 22.8066 23.9169H21.7198C21.7198 23.9169 21.4533 23.9047 21.3232 24.122C21.0239 24.6211 20.6805 24.8759 20.1008 24.8759C19.1502 24.8759 18.6119 24.2618 18.5868 23.1238H22.8066C23.139 23.1238 23.2168 22.8843 23.2067 22.613C23.1275 20.4904 21.882 19.1729 20.0255 19.1729C18.1488 19.1729 16.7852 20.6562 16.7852 22.7025C16.7852 24.7739 18.0986 26.1548 20.0876 26.1548ZM18.5867 21.9719C18.6867 21.0506 19.2372 20.488 20.0257 20.488C20.9137 20.488 21.3392 21.1659 21.4144 21.9719H18.5867Z" fill="white"/>
<path fill-rule="evenodd" clip-rule="evenodd" d="M11.7674 5.39128C11.5869 5.10526 11.3743 4.87384 11.1288 4.6956C10.8833 4.51785 10.6067 4.37654 10.2989 4.27115C9.99158 4.1667 9.65417 4.0952 9.28727 4.05706C8.92061 4.01885 8.52595 4 8.10346 4H4.63913C4.32764 4 4.00119 4.20848 4.00119 4.60176V10.3262C4.43997 11.2802 5.29492 12.2931 6.26677 12.7771V11.6418C6.26677 11.0428 6.70953 10.9088 6.89266 10.9088H7.91685C9.32773 10.9088 10.4044 10.6069 11.1473 10.0031C11.8901 9.40011 12.2614 8.50401 12.2614 7.31603C12.2614 6.95409 12.2225 6.61433 12.1451 6.29663C12.067 5.97911 11.9413 5.67712 11.7674 5.39128ZM9.74916 8.33409C9.62188 8.55319 9.45088 8.71675 9.23652 8.82485C9.022 8.93313 8.7749 8.99945 8.49548 9.02502C8.21565 9.05041 7.92659 9.06323 7.62824 9.06323H6.6548C6.41668 9.06323 6.26705 8.8657 6.26705 8.57434V6.23397C6.26705 5.97156 6.43496 5.86142 6.63636 5.86142H7.62824C7.95136 5.86142 8.25428 5.8711 8.53727 5.88995C8.82027 5.9088 9.06553 5.96952 9.27391 6.07126C9.48229 6.17299 9.64522 6.32849 9.7637 6.53816C9.88152 6.74758 9.94068 7.04328 9.94068 7.42415C9.94015 7.81148 9.87662 8.11482 9.74916 8.33409ZM4.00097 11.6763C4.48112 12.191 5.19773 12.7101 6.26655 13.1456C6.26655 13.8131 6.2663 14.4398 6.2663 14.4398C6.2663 14.4398 6.31748 14.8905 5.90288 14.8905H4.39164C3.96117 14.8905 4.00097 14.4398 4.00097 14.4398V11.6763ZM27.6842 7.01225H26.3279C26.0522 7.01225 25.8706 7.13021 25.7611 7.43915C25.6512 7.7481 24.2142 11.8284 24.2142 11.8284C24.2142 11.8284 22.8389 7.83235 22.7308 7.52297C22.6231 7.2136 22.4448 7.01225 22.1245 7.01225H20.8784C20.4388 7.01225 20.4388 7.36409 20.4933 7.50387C20.5375 7.61665 22.2442 12.3839 22.8943 14.1998C22.925 14.2857 22.952 14.3596 22.9755 14.4241L22.976 14.4254C23.0696 14.6816 23.1091 14.7896 23.1128 14.9164C23.1179 15.0757 22.9592 15.4087 22.8497 15.6001C22.7956 15.6944 22.7376 15.7743 22.6771 15.8472C23.9515 15.4585 25.4203 14.0475 26.1799 12.5189C26.9308 10.3888 27.9214 7.57478 27.9642 7.43075C28.0333 7.19814 28.0325 7.01225 27.6842 7.01225ZM21.343 16.2241C21.4604 16.2398 21.5775 16.2472 21.6952 16.2499C23.4028 16.4185 25.1662 14.7144 25.5398 14.3298L25.3424 14.8902C25.1685 15.3603 24.9864 15.7908 24.7972 16.1813C24.6075 16.5718 24.3916 16.9084 24.1494 17.191C23.9068 17.4736 23.627 17.6943 23.31 17.8531C22.9931 18.0119 22.62 18.0915 22.1915 18.0915C21.8266 18.0915 21.5059 18.0598 21.2289 17.9967L21.2171 17.994C21.1099 17.9701 20.9325 17.9307 20.9325 17.5381V16.4708C20.9325 16.232 21.2001 16.2047 21.343 16.2241ZM19.6584 8.27664C19.5777 8.08608 19.4781 7.92295 19.3606 7.78588C19.2421 7.6495 19.1025 7.52746 18.9406 7.41894C18.7667 7.30437 18.5898 7.21087 18.4096 7.13759C18.2293 7.06523 18.0349 7.0046 17.8268 6.9567C17.6187 6.90881 17.3902 6.8756 17.1418 6.85675C16.893 6.83789 16.6133 6.82821 16.3025 6.82821C14.2477 6.82821 13.078 7.48993 12.7925 8.81361C12.6997 9.22438 13.0985 9.24858 13.0985 9.24858H14.3625C14.6373 9.24858 14.6735 9.17351 14.7703 8.97273C14.7898 8.93239 14.8117 8.88692 14.8385 8.83603C14.8978 8.66839 14.9974 8.5298 15.1372 8.41948C15.3799 8.22892 15.7435 8.13389 16.2281 8.13389C16.6943 8.13389 17.0331 8.22604 17.2444 8.41006C17.4558 8.59434 17.58 8.87382 17.6172 9.24858C17.6172 9.68355 17.4842 9.97365 16.9682 9.97365C15.7104 9.92711 14.3588 10.0723 13.5975 10.517C12.8358 10.9616 12.4055 11.8314 12.4055 12.7652C12.4055 13.1461 12.4723 13.4797 12.606 13.7658C12.7395 14.0513 12.9259 14.2911 13.1655 14.485C13.4045 14.6788 13.689 14.8234 14.0185 14.9186C14.3478 15.0139 14.7083 15.0617 15.0998 15.0617C15.6468 15.0617 16.1304 14.9914 16.5499 14.8518C16.9693 14.7123 17.6184 14.2519 17.7011 14.1848V14.4301C17.7011 14.6732 17.7736 14.89 18.0583 14.89L19.5282 14.8902C19.8258 14.8902 19.8918 14.6734 19.8918 14.4067V9.79226C19.8918 9.46846 19.8734 9.18226 19.836 8.9348C19.7983 8.68649 19.7391 8.46763 19.6584 8.27664ZM15.9202 13.6055C17.2749 13.6055 17.6545 12.802 17.6545 12.802C17.6545 12.802 17.6545 11.9861 17.6543 11.8931C17.6543 11.6404 17.5048 11.2746 16.9364 11.2609C16.3679 11.2472 15.6092 11.358 15.2303 11.5514C14.8511 11.7455 14.6614 12.0773 14.6614 12.5477C14.6614 12.9099 14.7781 13.1767 15.0112 13.3483C15.2445 13.5199 15.5476 13.6055 15.9202 13.6055Z" fill="black"/>
</svg>
