<svg width="256" height="57" viewBox="0 0 256 57" fill="none" xmlns="http://www.w3.org/2000/svg">
<path d="M241.294 8.1641C243.208 9.65301 244.463 11.8382 244.817 14.2288C244.982 18.2842 242.994 21.6469 240.467 24.6619C236.897 28.4992 231.993 30.9422 226.801 31.5536C225.243 31.5475 223.865 31.3672 222.387 30.875C222.36 31.6382 222.34 32.4017 222.324 33.1652C222.312 33.5903 222.3 34.0154 222.288 34.4534C222.393 35.6886 222.493 36.1585 223.406 36.9822C227.056 38.1466 231.085 36.5481 234.331 34.9403C237.887 33.0263 240.893 30.2701 243.777 27.4822C244.019 27.2499 244.261 27.0177 244.511 26.7784C245.382 25.9264 246.141 25.1246 246.854 24.1317C247.512 23.4108 247.512 23.4108 248.509 23.0503C249.549 23.0715 249.549 23.0715 250.504 23.5804C251.247 24.4286 251.247 24.4286 251.692 25.4889C251.439 28.6275 247.788 31.4096 245.645 33.5469C245.349 33.8416 245.054 34.1362 244.749 34.4398C242.223 36.9173 239.572 39.0694 236.647 41.0536C236.31 41.2889 235.972 41.5242 235.625 41.7666C230.155 45.4313 224.462 46.4634 217.973 45.8036C215.527 45.2747 213.538 43.7713 211.999 41.8342C211.138 40.4234 210.632 38.8993 210.164 37.3215C208.856 38.0439 207.861 38.8702 206.79 39.9085C205.361 41.2291 203.909 42.3574 202.271 43.4074C202.078 43.5312 201.886 43.6551 201.688 43.7826C198.54 45.7469 195.789 46.2534 192.17 45.8036C190.759 45.2192 190.115 44.3946 189.43 43.0602C187.51 38.1356 189.803 32.7195 191.755 28.1483C192.709 25.9947 193.817 23.9636 195.033 21.9476C195.599 21.0481 195.599 21.0481 195.904 20.0179C192.898 22.9688 192.898 22.9688 190.073 26.0906C189.448 26.8101 188.801 27.5056 188.149 28.2009C186.246 30.2369 184.509 32.3666 182.806 34.5714C182.204 35.3436 181.598 36.0846 180.944 36.8125C179.967 37.9276 179.111 39.1284 178.249 40.3326C178.1 40.5387 177.951 40.7447 177.798 40.957C176.96 42.1278 176.245 43.3091 175.554 44.5737C174.952 45.4969 174.7 45.7555 173.621 46.0355C172.141 46.1006 171.096 45.9714 169.782 45.2735C168.552 43.8201 167.565 42.3131 167.385 40.375C167.359 40.1585 167.334 39.9421 167.308 39.719C166.923 33.721 170.558 27.8758 173.156 22.7322C172.91 22.9797 172.663 23.2273 172.408 23.4823C171.828 24.0603 171.246 24.6353 170.658 25.2053C168.888 26.9337 167.28 28.7243 165.736 30.6564C165.071 31.476 164.383 32.2586 163.671 33.038C161.059 35.9527 158.786 39.0954 156.655 42.3725C154.475 45.7185 154.475 45.7185 153.265 46.0289C151.668 46.0066 150.655 45.9424 149.241 45.1462C147.35 42.8873 146.759 40.8034 146.862 37.8569C147.151 35.533 147.884 33.3929 148.711 31.2143C148.791 31.0016 148.871 30.7888 148.953 30.5696C151.854 23.0521 156.362 15.6118 161.613 9.50004C161.79 9.28267 161.967 9.0653 162.15 8.84135C162.978 7.90063 163.544 7.48825 164.775 7.20986C166.975 7.65709 168.511 8.84799 169.973 10.5179C170.559 11.7946 170.48 12.2245 170.101 13.5715C169.548 14.5216 168.895 15.3872 168.233 16.2645C166.851 18.158 165.529 20.0603 164.329 22.0748C164.21 22.2723 164.092 22.4697 163.97 22.6731C163.112 24.1302 162.357 25.6261 161.613 27.1429C161.879 26.8315 162.146 26.5201 162.42 26.1993C162.781 25.7787 163.141 25.3581 163.501 24.9375C163.676 24.7337 163.85 24.5299 164.03 24.3199C177.656 8.41913 177.656 8.41913 182.536 7.25095C184.453 7.11366 185.714 7.63033 187.158 8.87713C188.557 10.3341 189.373 11.4801 189.597 13.5171C189.552 15.0842 188.824 16.0326 187.841 17.1976C185.395 20.2892 183.537 23.6953 181.645 27.1429C182.733 26.0836 183.721 25.0076 184.658 23.8137C197.266 8.26855 197.266 8.26855 202.614 7.29336C205.659 7.23241 207.606 8.03231 209.809 10.1322C211.035 11.5603 211.368 12.6129 211.313 14.4923C211.092 15.8118 210.378 16.6238 209.528 17.6217C206.613 21.3257 204.409 25.3506 202.674 29.73C202.576 29.9748 202.479 30.2196 202.378 30.4719C201.773 32.0807 201.493 33.5739 201.337 35.2858C205.35 34.7259 209.483 29.8962 211.862 26.8036C212.464 25.8007 212.97 24.7619 213.475 23.7076C214.994 20.6872 216.794 18.1647 218.992 15.6072C219.23 15.3185 219.467 15.0299 219.712 14.7325C224.894 8.60596 233.552 3.42093 241.294 8.1641ZM231.473 14.9962C226.558 20.1532 226.558 20.1532 224.085 26.4643C228.89 25.4117 231.908 22.1273 234.546 18.1306C236.186 15.5253 236.186 15.5253 236.541 12.5536C236.426 12.2177 236.426 12.2177 236.308 11.875C234.33 11.875 232.824 13.6697 231.473 14.9962Z" fill="#9FCDFF"/>
<path d="M7.85008 11.4788C8.26519 11.4771 8.26519 11.4771 8.68869 11.4754C9.27523 11.4736 9.86176 11.4729 10.4483 11.4729C11.3478 11.4722 12.2471 11.466 13.1465 11.4596C13.7152 11.4586 14.284 11.4579 14.8527 11.4576C15.1229 11.4551 15.3932 11.4527 15.6716 11.4502C17.5774 11.4581 17.5774 11.4581 18.3342 12.2143C18.5371 12.7775 18.7134 13.3504 18.8753 13.9267C18.9783 14.2861 19.0814 14.6454 19.1876 15.0157C19.2981 15.4068 19.4086 15.798 19.5225 16.201C20.5737 19.8421 21.7086 23.4452 22.9177 27.0369C22.9942 27.2642 23.0706 27.4914 23.1494 27.7256C23.5793 29.0023 24.0115 30.2783 24.4456 31.5536C24.9267 30.1199 25.4071 28.6858 25.8869 27.2516C26.0573 26.7421 26.2279 26.2327 26.3986 25.7233C27.2881 23.0671 28.1703 20.4097 29.0092 17.737C29.132 17.3462 29.2548 16.9554 29.3812 16.5527C29.6099 15.8204 29.8363 15.0873 30.0603 14.3535C30.2123 13.8667 30.2123 13.8667 30.3673 13.37C30.497 12.9466 30.497 12.9466 30.6293 12.5145C30.8965 11.8751 30.8965 11.8751 31.5755 11.5358C32.4879 11.5022 33.3913 11.4883 34.3037 11.4907C34.5732 11.4904 34.8427 11.4901 35.1204 11.4897C35.6904 11.4895 36.2603 11.4901 36.8303 11.4915C37.7058 11.4934 38.5813 11.4916 39.4568 11.4894C40.0097 11.4896 40.5625 11.49 41.1153 11.4907C41.3788 11.49 41.6423 11.4893 41.9137 11.4886C43.7593 11.4968 43.7593 11.4968 44.1379 11.8751C44.172 12.9164 44.1841 13.9501 44.1818 14.9916C44.1827 15.4823 44.1827 15.4823 44.1836 15.9829C44.1851 17.0699 44.1841 18.1569 44.183 19.2439C44.1832 19.9957 44.1835 20.7475 44.1839 21.4993C44.1844 23.0772 44.1837 24.655 44.1821 26.2329C44.1802 28.2605 44.1813 30.288 44.1833 32.3156C44.1846 33.8686 44.1842 35.4217 44.1833 36.9748C44.1831 37.7226 44.1834 38.4704 44.1841 39.2182C44.185 40.2614 44.1837 41.3046 44.1818 42.3478C44.1825 42.6602 44.1832 42.9725 44.1839 43.2943C44.1767 45.4256 44.1767 45.4256 43.7983 45.8036C43.1979 45.8374 42.5961 45.848 41.9946 45.8487C41.6296 45.8491 41.2646 45.8496 40.8885 45.85C40.5043 45.8487 40.12 45.8474 39.7241 45.846C39.3398 45.8474 38.9555 45.8487 38.5596 45.85C38.1946 45.8496 37.8296 45.8491 37.4535 45.8487C37.1161 45.8483 36.7786 45.8479 36.431 45.8475C35.6498 45.8036 35.6498 45.8036 35.3103 45.4643C35.2685 44.8815 35.2499 44.2971 35.2406 43.7128C35.2304 43.1525 35.2304 43.1525 35.2201 42.5808C35.2144 42.1744 35.2087 41.7679 35.2029 41.3492C35.1958 40.9355 35.1887 40.5218 35.1815 40.0955C35.1592 38.768 35.1392 37.4404 35.1193 36.1128C35.1046 35.2153 35.0898 34.3178 35.0749 33.4204C35.0384 31.2148 35.0039 29.0092 34.9708 26.8036C34.3969 28.5139 33.8241 30.2245 33.2519 31.9353C33.1249 32.3151 33.1249 32.3151 32.9952 32.7025C31.8122 36.2408 30.6497 39.7843 29.545 43.348C28.8943 45.4294 28.8943 45.4294 28.5198 45.8036C27.9152 45.8332 27.3095 45.8399 26.7042 45.8368C26.3376 45.8357 25.9711 45.8346 25.5934 45.8335C25.2076 45.8306 24.8218 45.8278 24.4243 45.8248C24.0372 45.8233 23.6501 45.8218 23.2513 45.8202C22.2913 45.8162 21.3313 45.8106 20.3713 45.8036C19.5869 44.3324 19.0431 42.8962 18.5702 41.2988C18.5003 41.0653 18.4304 40.8317 18.3584 40.591C18.1364 39.8481 17.9168 39.1044 17.6976 38.3606C16.4534 32.3519 16.4534 32.3519 13.9204 27.1429C13.8083 33.301 13.6963 39.459 13.5808 45.8036C10.7798 45.8036 7.97872 45.8036 5.09278 45.8036C4.43748 45.1488 4.7102 44.1658 4.70724 43.2943C4.70793 42.982 4.70862 42.6696 4.70933 42.3478C4.70873 42.0207 4.70814 41.6936 4.70752 41.3566C4.70602 40.2695 4.70702 39.1825 4.70817 38.0955C4.70794 37.3437 4.70761 36.5919 4.70718 35.8401C4.70668 34.2623 4.70741 32.6844 4.709 31.1065C4.71093 29.0789 4.70982 27.0514 4.70778 25.0238C4.70656 23.4708 4.70694 21.9177 4.70783 20.3647C4.70805 19.6168 4.70777 18.869 4.70698 18.1212C4.70613 17.078 4.70743 16.0348 4.70933 14.9916C4.70864 14.6793 4.70795 14.3669 4.70724 14.0451C4.71682 11.2185 5.25178 11.4824 7.85008 11.4788Z" fill="#FEFEFE"/>
<path d="M108.987 11.5356C110.394 11.5258 111.802 11.5197 113.21 11.5144C113.813 11.5101 113.813 11.5101 114.428 11.5058C114.81 11.5047 115.191 11.5036 115.585 11.5025C115.939 11.5007 116.293 11.4989 116.657 11.4971C117.475 11.5356 117.475 11.5356 117.814 11.8749C117.844 12.8535 117.853 13.8239 117.848 14.8025C117.847 15.0958 117.847 15.389 117.846 15.6911C117.844 16.6315 117.84 17.5718 117.836 18.5122C117.834 19.1481 117.832 19.784 117.831 20.42C117.827 21.9823 117.821 23.5446 117.814 25.107C121.624 25.107 125.433 25.107 129.358 25.107C129.354 24.1842 129.35 23.2614 129.346 22.3106C129.344 21.419 129.341 20.5274 129.339 19.6359C129.338 19.0152 129.335 18.3945 129.333 17.7738C129.328 16.8828 129.326 15.9918 129.325 15.1007C129.323 14.8222 129.321 14.5437 129.32 14.2568C129.319 12.2914 129.319 12.2914 129.698 11.5356C131.105 11.5258 132.513 11.5197 133.92 11.5144C134.322 11.5115 134.724 11.5087 135.139 11.5058C135.52 11.5047 135.902 11.5036 136.296 11.5025C136.65 11.5007 137.003 11.4989 137.368 11.4971C138.186 11.5356 138.186 11.5356 138.525 11.8749C138.558 12.9284 138.568 13.9743 138.564 15.0279C138.564 15.3589 138.564 15.6899 138.564 16.0309C138.564 17.1306 138.561 18.2302 138.558 19.3299C138.558 20.0901 138.557 20.8503 138.557 21.6105C138.556 23.6157 138.552 25.6209 138.549 27.6262C138.545 29.6706 138.544 31.715 138.542 33.7595C138.538 37.7741 138.532 41.7888 138.525 45.8034C137.061 45.8132 135.597 45.8193 134.133 45.8246C133.714 45.8275 133.296 45.8303 132.865 45.8333C132.468 45.8344 132.071 45.8355 131.662 45.8366C131.11 45.8392 131.11 45.8392 130.547 45.842C129.698 45.8034 129.698 45.8034 129.358 45.4642C129.332 44.5881 129.327 43.7211 129.337 42.8453C129.338 42.583 129.339 42.3207 129.341 42.0505C129.346 40.9235 129.356 39.7966 129.365 38.6697C129.371 37.8491 129.375 37.0286 129.379 36.208C129.382 35.9511 129.385 35.6941 129.388 35.4294C129.391 34.8159 129.376 34.2024 129.358 33.5892C128.973 33.127 128.973 33.127 127.952 33.2114C127.479 33.2114 127.007 33.2133 126.535 33.2167C126.315 33.2171 126.095 33.2174 125.868 33.2178C125.044 33.2196 124.22 33.2243 123.395 33.2287C121.554 33.2357 119.712 33.2427 117.814 33.2499C117.814 37.3926 117.814 41.5352 117.814 45.8034C116.365 45.8104 114.915 45.8174 113.422 45.8246C112.735 45.8293 112.735 45.8293 112.035 45.834C111.498 45.8353 111.498 45.8353 110.951 45.8366C110.399 45.8392 110.399 45.8392 109.836 45.842C108.987 45.8034 108.987 45.8034 108.647 45.4642C108.613 44.435 108.601 43.4135 108.603 42.3842C108.603 42.0609 108.602 41.7376 108.602 41.4046C108.6 40.3302 108.601 39.2558 108.602 38.1814C108.602 37.4381 108.602 36.6947 108.601 35.9514C108.601 34.3909 108.601 32.8304 108.603 31.2699C108.605 29.266 108.604 27.262 108.602 25.2581C108.601 23.7222 108.601 22.1863 108.602 20.6504C108.602 19.9114 108.602 19.1723 108.601 18.4333C108.6 17.4015 108.601 16.3698 108.603 15.3381C108.603 15.0301 108.602 14.7222 108.601 14.4049C108.608 12.2917 108.608 12.2917 108.987 11.5356Z" fill="#FEFEFE"/>
<path d="M57.7188 11.5353C58.6219 11.4278 59.4445 11.3847 60.3488 11.3882C60.6091 11.3864 60.8695 11.3847 61.1378 11.3828C61.6889 11.3807 62.24 11.3811 62.7911 11.384C63.6349 11.3869 64.4779 11.3771 65.3216 11.3664C65.8567 11.3658 66.3919 11.366 66.927 11.367C67.1795 11.3632 67.4321 11.3594 67.6923 11.3555C69.4236 11.3789 69.4236 11.3789 70.2407 12.0955C70.6901 13.0382 70.9658 13.9435 71.2254 14.956C72.0611 18.02 73.1225 20.9915 74.1856 23.9829C74.6085 25.1794 75.0304 26.3763 75.4522 27.5732C75.5585 27.8745 75.6648 28.1757 75.7743 28.4861C77.0642 32.1473 78.3176 35.821 79.5689 39.4955C79.6503 39.7339 79.7316 39.9722 79.8154 40.2178C80.0338 40.8574 80.2515 41.4973 80.4692 42.1372C80.7732 43.0576 80.7732 43.0576 81.1458 43.7675C81.1594 44.4459 81.1606 45.1248 81.1458 45.8032C79.6321 45.8228 78.1185 45.8349 76.6047 45.8456C76.1732 45.8513 75.7416 45.857 75.297 45.8628C74.8856 45.865 74.4742 45.8672 74.0503 45.8695C73.6698 45.873 73.2894 45.8766 72.8973 45.8802C71.9787 45.8032 71.9787 45.8032 71.2997 45.1246C70.9886 44.2713 70.7007 43.4245 70.4297 42.5588C70.0495 41.0077 70.0495 41.0077 69.2625 39.6961C68.4066 39.666 67.5601 39.6569 66.7042 39.6629C66.4484 39.6634 66.1927 39.6639 65.9292 39.6644C65.1093 39.6663 64.2894 39.6705 63.4694 39.6748C62.9148 39.6765 62.3602 39.6781 61.8057 39.6795C60.4433 39.6832 59.0811 39.6891 57.7188 39.6961C57.6041 40.0801 57.4894 40.4641 57.3713 40.8597C57.2185 41.3625 57.0655 41.8652 56.9124 42.3679C56.7995 42.7478 56.7995 42.7478 56.6843 43.1353C56.0981 45.0478 56.0981 45.0478 55.3421 45.8032C54.4235 45.8802 54.4235 45.8802 53.2705 45.8695C52.8591 45.8673 52.4477 45.8651 52.0238 45.8628C51.5923 45.8571 51.1607 45.8515 50.7161 45.8456C50.0649 45.841 50.0649 45.841 49.4005 45.8363C48.3253 45.8283 47.2502 45.8171 46.175 45.8032C45.7686 44.5847 45.9252 44.3083 46.366 43.1326C46.4941 42.7842 46.6221 42.4357 46.7541 42.0766C46.8991 41.6899 47.0442 41.3032 47.1936 40.9048C47.5086 40.0454 47.8226 39.1858 48.1352 38.3257C48.2206 38.0913 48.306 37.8569 48.394 37.6154C49.5844 34.3321 50.697 31.0219 51.8196 27.715C52.0409 27.0645 52.2622 26.4141 52.4836 25.7636C52.9068 24.5205 53.3298 23.2772 53.7528 22.034C54.4845 19.8834 55.2173 17.7333 55.9575 15.5856C56.1138 15.1265 56.1138 15.1265 56.2733 14.6581C56.3674 14.3864 56.4614 14.1147 56.5583 13.8348C56.6361 13.6082 56.7139 13.3816 56.7941 13.1482C57.0397 12.5532 57.0397 12.5532 57.7188 11.5353ZM63.4907 21.0353C63.0059 22.5204 62.5224 24.0059 62.0401 25.4918C61.8757 25.9974 61.7111 26.5029 61.546 27.0083C61.3091 27.7339 61.0735 28.46 60.8381 29.1861C60.7639 29.4127 60.6896 29.6393 60.6131 29.8727C60.2249 31.0287 60.2249 31.0287 60.0954 32.2318C62.4483 32.2318 64.8012 32.2318 67.2254 32.2318C66.3585 28.4098 65.0996 24.7395 63.8302 21.0353C63.7181 21.0353 63.6061 21.0353 63.4907 21.0353Z" fill="#FDFEFE"/>
<path d="M78.0902 11.5361C87.1656 11.5361 96.241 11.5361 105.591 11.5361C106.192 12.7359 105.994 14.1166 105.995 15.4379C105.999 15.7366 106.003 16.0354 106.007 16.3431C106.008 16.6287 106.009 16.9143 106.009 17.2086C106.011 17.4708 106.012 17.733 106.013 18.0031C105.931 18.6611 105.931 18.6611 105.252 19.3397C104.365 19.4167 104.365 19.4167 103.255 19.406C102.859 19.4038 102.462 19.4016 102.054 19.3993C101.639 19.3937 101.224 19.388 100.796 19.3821C100.378 19.3791 99.9598 19.376 99.5291 19.3728C98.4942 19.3648 97.4593 19.3536 96.4244 19.3397C96.4294 19.6562 96.4344 19.9728 96.4395 20.2989C96.4865 23.2794 96.5315 26.2599 96.5748 29.2404C96.5971 30.7728 96.62 32.3051 96.6444 33.8375C96.668 35.3158 96.6898 36.7941 96.7105 38.2724C96.7187 38.8369 96.7275 39.4014 96.7369 39.9659C96.75 40.7555 96.7609 41.5451 96.7713 42.3347C96.7757 42.569 96.7801 42.8032 96.7846 43.0446C96.7959 44.068 96.7515 44.8232 96.4244 45.804C94.9602 45.8138 93.496 45.8199 92.0318 45.8252C91.6136 45.828 91.1954 45.8309 90.7646 45.8338C90.3674 45.8349 89.9702 45.836 89.561 45.8371C89.0089 45.8398 89.0089 45.8398 88.4457 45.8425C87.5968 45.804 87.5968 45.804 87.2573 45.4647C87.225 44.6492 87.2146 43.8436 87.2187 43.028C87.2187 42.7731 87.2186 42.5183 87.2186 42.2557C87.2188 41.4094 87.2215 40.5631 87.2241 39.7167C87.2247 39.1315 87.2252 38.5462 87.2256 37.961C87.2269 36.4176 87.2302 34.8742 87.234 33.3308C87.2374 31.7572 87.239 30.1835 87.2407 28.6098C87.2443 25.5197 87.2501 22.4297 87.2573 19.3397C87.0055 19.345 86.7537 19.3504 86.4943 19.3559C85.3552 19.377 84.2161 19.3902 83.0769 19.4033C82.4824 19.4161 82.4824 19.4161 81.876 19.4292C81.4963 19.4324 81.1166 19.4357 80.7254 19.4391C80.3752 19.4444 80.0249 19.4498 79.664 19.4553C78.7692 19.3397 78.7692 19.3397 78.1452 18.8662C77.6411 18.1707 77.6282 17.7638 77.6392 16.9104C77.641 16.6412 77.6427 16.372 77.6445 16.0946C77.6515 15.8149 77.6585 15.5352 77.6658 15.2471C77.6675 14.9661 77.6693 14.6851 77.6711 14.3955C77.6981 12.3197 77.6981 12.3197 78.0902 11.5361Z" fill="#FDFEFD"/>
<path d="M7.85008 11.4788C8.26519 11.4771 8.26519 11.4771 8.68869 11.4754C9.27523 11.4736 9.86177 11.4729 10.4483 11.4729C11.3478 11.4722 12.2471 11.466 13.1465 11.4596C13.7152 11.4586 14.284 11.4579 14.8527 11.4576C15.1229 11.4551 15.3932 11.4527 15.6716 11.4502C17.5774 11.4581 17.5774 11.4581 18.3342 12.2143C18.5371 12.7775 18.7134 13.3504 18.8753 13.9267C18.9783 14.2861 19.0814 14.6454 19.1876 15.0157C19.2981 15.4068 19.4086 15.798 19.5225 16.201C20.5737 19.8421 21.7086 23.4452 22.9177 27.0369C22.9942 27.2642 23.0706 27.4914 23.1494 27.7256C23.5793 29.0023 24.0115 30.2783 24.4456 31.5536C26.642 25.0084 28.8145 18.4578 30.8965 11.8751C31.2326 12.211 31.2326 12.211 31.5755 12.5536C31.4641 14.0752 30.9691 15.4564 30.4734 16.8875C30.2539 17.5354 30.0629 18.193 29.8779 18.8516C29.5745 19.8941 29.2036 20.8859 28.8116 21.8972C28.283 23.41 27.8792 24.9604 27.4562 26.5054C27.1617 27.4822 27.1617 27.4822 26.8222 27.8215C26.6974 28.6114 26.5837 29.4032 26.4827 30.1965C26.2586 30.1965 26.0345 30.1965 25.8037 30.1965C25.8177 30.5184 25.8317 30.8403 25.8461 31.1719C25.8037 32.2322 25.8037 32.2322 25.1246 32.9108C24.2334 32.9532 24.2334 32.9532 23.427 32.9108C22.546 30.3374 21.7932 27.7405 21.114 25.1072C20.5048 22.788 19.7728 20.5246 18.9896 18.2585C18.3342 16.3512 18.3342 16.3512 18.3342 15.6072C18.1101 15.6072 17.886 15.6072 17.6551 15.6072C17.6061 15.2363 17.5571 14.8654 17.5066 14.4833C17.3554 13.2555 17.3554 13.2555 16.9761 12.2143C11.43 12.3823 11.43 12.3823 5.77183 12.5536C5.77361 13.5162 5.77538 14.4788 5.77721 15.4705C5.78283 18.6448 5.78659 21.8191 5.78942 24.9934C5.79119 26.9187 5.7936 28.8439 5.79744 30.7692C5.80112 32.6259 5.80316 34.4826 5.80404 36.3393C5.80467 37.049 5.8059 37.7587 5.80772 38.4683C5.81018 39.4595 5.81053 40.4506 5.81037 41.4418C5.81159 41.7376 5.81281 42.0334 5.81407 42.3381C5.81055 44.3691 5.81055 44.3691 5.4323 45.1251C7.89724 45.1251 10.3622 45.1251 12.9018 45.1251C12.9018 38.2952 12.9018 31.4654 12.9018 24.4286C13.35 24.4286 13.7981 24.4286 14.2599 24.4286C15.1655 25.5904 15.4941 26.7599 15.809 28.182C16.0844 29.4153 16.4059 30.4313 16.9761 31.5536C16.9761 32.1191 16.9761 32.6846 16.9761 33.2501C17.3122 33.586 17.3122 33.586 17.6551 33.9286C17.8977 34.6113 17.8977 34.6113 18.1193 35.4461C18.2029 35.7516 18.2865 36.0571 18.3726 36.3719C18.5426 37.0098 18.7123 37.6477 18.8819 38.2857C19.379 40.1013 19.9625 41.7775 20.7906 43.4703C21.0503 44.1072 21.0503 44.1072 21.0503 45.1251C23.4032 45.1251 25.7561 45.1251 28.1803 45.1251C28.1803 44.3413 28.1803 43.5576 28.1803 42.7501C28.4044 42.7501 28.6285 42.7501 28.8594 42.7501C28.8887 42.5681 28.918 42.3862 28.9482 42.1987C29.2962 40.2588 29.8009 38.3946 30.3872 36.5157C30.4597 36.2817 30.5322 36.0477 30.607 35.8066C30.8879 34.9227 31.1666 34.0657 31.5862 33.2368C32.0679 32.2624 32.3067 31.2435 32.5941 30.1965C32.8773 29.2472 33.1704 28.301 33.4641 27.355C33.5392 27.1096 33.6143 26.8643 33.6916 26.6115C34.2521 24.8075 34.2521 24.8075 34.6312 24.4286C35.1915 24.4286 35.7517 24.4286 36.3289 24.4286C36.3289 31.1465 36.3289 37.8643 36.3289 44.7858C38.6817 44.8977 41.0346 45.0097 43.4588 45.1251C43.4588 43.6695 43.4588 42.214 43.4588 40.7143C44.1379 41.3929 44.1379 41.3929 44.2161 42.3379C44.2113 42.7048 44.2065 43.0718 44.2015 43.4498C44.1993 43.8177 44.1972 44.1855 44.1949 44.5644C44.1379 45.4643 44.1379 45.4643 43.7984 45.8036C43.1979 45.8374 42.5961 45.848 41.9946 45.8487C41.6296 45.8491 41.2646 45.8496 40.8885 45.85C40.5043 45.8487 40.12 45.8474 39.7241 45.846C39.3398 45.8474 38.9555 45.8487 38.5596 45.85C38.1946 45.8496 37.8296 45.8491 37.4535 45.8487C37.1161 45.8483 36.7786 45.8479 36.431 45.8475C35.6498 45.8036 35.6498 45.8036 35.3103 45.4643C35.2685 44.8815 35.2499 44.2971 35.2406 43.7128C35.2304 43.1525 35.2304 43.1525 35.2201 42.5808C35.2144 42.1744 35.2087 41.7679 35.2029 41.3492C35.1958 40.9355 35.1888 40.5218 35.1815 40.0955C35.1592 38.768 35.1392 37.4404 35.1193 36.1128C35.1047 35.2153 35.0898 34.3178 35.0749 33.4204C35.0384 31.2148 35.0039 29.0092 34.9708 26.8036C34.3969 28.5139 33.8241 30.2245 33.2519 31.9353C33.1249 32.3151 33.1249 32.3151 32.9952 32.7025C31.8122 36.2408 30.6497 39.7843 29.545 43.348C28.8943 45.4294 28.8943 45.4294 28.5198 45.8036C27.9152 45.8332 27.3095 45.8399 26.7042 45.8368C26.3376 45.8357 25.9711 45.8346 25.5934 45.8335C25.2076 45.8306 24.8218 45.8278 24.4243 45.8248C24.0372 45.8233 23.6501 45.8218 23.2513 45.8202C22.2913 45.8162 21.3313 45.8106 20.3713 45.8036C19.587 44.3324 19.0431 42.8962 18.5702 41.2988C18.5003 41.0653 18.4304 40.8317 18.3584 40.591C18.1364 39.8481 17.9168 39.1044 17.6976 38.3606C16.4534 32.3519 16.4534 32.3519 13.9204 27.1429C13.8083 33.301 13.6963 39.459 13.5808 45.8036C10.7798 45.8036 7.97872 45.8036 5.09278 45.8036C4.43748 45.1488 4.7102 44.1658 4.70724 43.2943C4.70793 42.982 4.70862 42.6696 4.70933 42.3478C4.70873 42.0207 4.70814 41.6936 4.70752 41.3566C4.70602 40.2695 4.70702 39.1825 4.70817 38.0955C4.70794 37.3437 4.70761 36.5919 4.70718 35.8401C4.70668 34.2623 4.70741 32.6844 4.709 31.1065C4.71093 29.0789 4.70982 27.0514 4.70778 25.0238C4.70656 23.4708 4.70694 21.9177 4.70783 20.3647C4.70805 19.6168 4.70777 18.869 4.70698 18.1212C4.70613 17.078 4.70743 16.0348 4.70933 14.9916C4.70864 14.6793 4.70795 14.3669 4.70724 14.0451C4.71682 11.2185 5.25178 11.4824 7.85008 11.4788Z" fill="#E7EFF9"/>
<path d="M108.987 11.5356C110.394 11.5258 111.802 11.5197 113.21 11.5144C113.813 11.5101 113.813 11.5101 114.428 11.5058C114.81 11.5047 115.191 11.5036 115.585 11.5025C115.939 11.5007 116.293 11.4989 116.657 11.4971C117.475 11.5356 117.475 11.5356 117.814 11.8749C117.844 12.8535 117.853 13.8239 117.848 14.8025C117.847 15.0958 117.847 15.389 117.846 15.6911C117.844 16.6315 117.84 17.5718 117.836 18.5122C117.834 19.1481 117.832 19.784 117.831 20.42C117.827 21.9823 117.821 23.5446 117.814 25.107C121.624 25.107 125.433 25.107 129.358 25.107C129.354 24.1842 129.35 23.2614 129.346 22.3106C129.344 21.419 129.341 20.5274 129.339 19.6359C129.338 19.0152 129.335 18.3945 129.333 17.7738C129.328 16.8828 129.326 15.9918 129.325 15.1007C129.323 14.8222 129.321 14.5437 129.32 14.2568C129.319 12.2914 129.319 12.2914 129.698 11.5356C131.105 11.5258 132.513 11.5197 133.92 11.5144C134.322 11.5115 134.724 11.5087 135.139 11.5058C135.52 11.5047 135.902 11.5036 136.296 11.5025C136.65 11.5007 137.003 11.4989 137.368 11.4971C138.186 11.5356 138.186 11.5356 138.525 11.8749C138.558 12.9284 138.568 13.9743 138.564 15.0279C138.564 15.3589 138.564 15.6899 138.564 16.0309C138.564 17.1306 138.561 18.2302 138.558 19.3299C138.558 20.0901 138.557 20.8503 138.557 21.6105C138.556 23.6157 138.552 25.6209 138.549 27.6262C138.545 29.6706 138.544 31.715 138.542 33.7595C138.538 37.7741 138.532 41.7888 138.525 45.8034C137.061 45.8132 135.597 45.8193 134.133 45.8246C133.714 45.8275 133.296 45.8303 132.865 45.8333C132.468 45.8344 132.071 45.8355 131.662 45.8366C131.11 45.8392 131.11 45.8392 130.547 45.842C129.698 45.8034 129.698 45.8034 129.358 45.4642C129.332 44.5881 129.327 43.7211 129.337 42.8453C129.338 42.583 129.339 42.3207 129.341 42.0505C129.346 40.9235 129.356 39.7966 129.365 38.6697C129.371 37.8491 129.375 37.0286 129.379 36.208C129.382 35.9511 129.385 35.6941 129.388 35.4294C129.391 34.8159 129.376 34.2024 129.358 33.5892C128.973 33.127 128.973 33.127 127.952 33.2114C127.479 33.2114 127.007 33.2133 126.535 33.2167C126.315 33.2171 126.095 33.2174 125.868 33.2178C125.044 33.2196 124.22 33.2243 123.395 33.2287C121.554 33.2357 119.712 33.2427 117.814 33.2499C117.814 37.3926 117.814 41.5352 117.814 45.8034C116.365 45.8104 114.915 45.8174 113.422 45.8246C112.735 45.8293 112.735 45.8293 112.035 45.834C111.498 45.8353 111.498 45.8353 110.951 45.8366C110.399 45.8392 110.399 45.8392 109.836 45.842C108.987 45.8034 108.987 45.8034 108.647 45.4642C108.613 44.435 108.601 43.4135 108.603 42.3842C108.603 42.0609 108.602 41.7376 108.602 41.4046C108.6 40.3302 108.601 39.2558 108.602 38.1814C108.602 37.4381 108.602 36.6947 108.601 35.9514C108.601 34.3909 108.601 32.8304 108.603 31.2699C108.605 29.266 108.604 27.262 108.602 25.2581C108.601 23.7222 108.601 22.1863 108.602 20.6504C108.602 19.9114 108.602 19.1723 108.601 18.4333C108.6 17.4015 108.601 16.3698 108.603 15.3381C108.603 15.0301 108.602 14.7222 108.601 14.4049C108.608 12.2917 108.608 12.2917 108.987 11.5356ZM135.615 11.916C135.341 11.9306 135.067 11.9452 134.785 11.9603C134.263 11.9915 134.263 11.9915 133.729 12.0233C132.07 12.1178 132.07 12.1178 130.377 12.2142C130.265 16.5808 130.153 20.9474 130.037 25.4463C125.78 25.4463 121.522 25.4463 117.135 25.4463C116.967 18.8964 116.967 18.8964 116.796 12.2142C114.443 12.2142 112.09 12.2142 109.666 12.2142C109.554 23.0747 109.442 33.9352 109.326 45.1249C111.791 45.1249 114.256 45.1249 116.796 45.1249C116.908 40.9822 117.02 36.8395 117.135 32.5713C121.617 32.5713 126.099 32.5713 130.716 32.5713C130.604 36.714 130.492 40.8567 130.377 45.1249C132.842 45.1249 135.307 45.1249 137.846 45.1249C137.846 34.2643 137.846 23.4038 137.846 12.2142C137.014 11.7981 136.541 11.8633 135.615 11.916Z" fill="#E3EDF8"/>
<path d="M57.7188 11.5353C58.6219 11.4278 59.4445 11.3847 60.3488 11.3882C60.6091 11.3864 60.8695 11.3847 61.1378 11.3828C61.6889 11.3807 62.24 11.3811 62.7911 11.384C63.6349 11.3869 64.4779 11.3771 65.3216 11.3664C65.8567 11.3658 66.3919 11.366 66.927 11.367C67.1795 11.3632 67.4321 11.3594 67.6923 11.3555C69.4236 11.3789 69.4236 11.3789 70.2407 12.0955C70.6901 13.0382 70.9658 13.9435 71.2254 14.956C72.0611 18.02 73.1225 20.9915 74.1856 23.9829C74.6085 25.1794 75.0304 26.3763 75.4522 27.5732C75.5585 27.8745 75.6648 28.1757 75.7743 28.4861C77.0642 32.1473 78.3176 35.821 79.5689 39.4955C79.6503 39.7339 79.7316 39.9722 79.8154 40.2178C80.0338 40.8574 80.2515 41.4973 80.4692 42.1372C80.7732 43.0576 80.7732 43.0576 81.1458 43.7675C81.1594 44.4459 81.1606 45.1248 81.1458 45.8032C79.6321 45.8228 78.1185 45.8349 76.6047 45.8456C76.1732 45.8513 75.7416 45.857 75.297 45.8628C74.8856 45.865 74.4742 45.8672 74.0503 45.8695C73.6698 45.873 73.2894 45.8766 72.8973 45.8802C71.9787 45.8032 71.9787 45.8032 71.2997 45.1246C70.9886 44.2713 70.7007 43.4245 70.4297 42.5588C70.0495 41.0077 70.0495 41.0077 69.2625 39.6961C68.3573 39.666 67.4609 39.657 66.5557 39.6629C66.1494 39.6636 66.1494 39.6636 65.735 39.6644C64.8666 39.6663 63.9983 39.6705 63.1299 39.6748C62.5426 39.6765 61.9553 39.6781 61.368 39.6795C59.9252 39.6832 58.4825 39.6891 57.0397 39.6961C56.8157 40.1439 56.5916 40.5918 56.3607 41.0532C56.2546 40.2686 56.2546 40.2686 56.3607 39.3568C57.1246 38.7206 57.1246 38.7206 58.0583 38.3389C58.5113 38.4509 58.9639 38.5642 59.4164 38.6782C60.2159 38.6983 61.0159 38.6989 61.8156 38.6875C62.2862 38.6832 62.7568 38.679 63.2274 38.6749C63.9658 38.6664 64.7041 38.6569 65.4425 38.6456C66.1575 38.6354 66.8724 38.6294 67.5875 38.6239C68.0145 38.6181 68.4414 38.6124 68.8813 38.6065C69.9416 38.6782 69.9416 38.6782 70.9602 39.3568C71.2705 40.254 71.2705 40.254 71.5119 41.3289C71.5933 41.6809 71.6747 42.033 71.7586 42.3958C71.9522 43.3039 72.136 44.2141 72.3182 45.1246C75.0073 45.1246 77.6963 45.1246 80.4668 45.1246C80.4668 44.9007 80.4668 44.6768 80.4668 44.4461C80.2427 44.4461 80.0186 44.4461 79.7877 44.4461C79.8193 44.0787 79.8193 44.0787 79.8514 43.7039C79.862 42.7398 79.862 42.7398 79.3275 42.0061C78.6571 40.862 78.292 39.6867 77.9204 38.4237C77.7715 37.9351 77.6225 37.4465 77.4734 36.9579C77.3394 36.5135 77.2054 36.0691 77.0716 35.6246C76.3771 33.3437 75.4705 31.19 74.492 29.0178C74.0736 27.9661 73.7819 26.9465 73.5242 25.8466C73.1601 24.4092 72.666 23.0117 72.1909 21.6079C72.0856 21.2948 71.9803 20.9818 71.8718 20.6593C70.976 17.0375 70.976 17.0375 69.2625 13.9103C69.2625 13.3505 69.2625 12.7907 69.2625 12.2139C65.5651 12.2139 61.8677 12.2139 58.0583 12.2139C57.527 14.5854 57.527 14.5854 57.0397 16.9639C56.8157 16.9639 56.5916 16.9639 56.3607 16.9639C56.3887 17.1808 56.4167 17.3978 56.4456 17.6213C56.3411 18.9003 55.8856 19.8017 55.3434 20.9532C54.8882 21.9693 54.6272 23.018 54.3236 24.0889C54.0515 24.7902 53.7752 25.4898 53.496 26.1882C52.7903 27.9842 52.2963 29.755 51.8607 31.6314C51.5521 32.7761 51.087 33.7863 50.5782 34.8533C50.0864 36.0066 49.8083 37.2019 49.4986 38.4145C49.149 39.6441 48.6733 40.8004 48.1671 41.973C47.8566 42.7918 47.6824 43.5845 47.5331 44.4461C47.309 44.4461 47.0849 44.4461 46.8541 44.4461C46.8541 44.67 46.8541 44.8939 46.8541 45.1246C49.431 45.0127 52.008 44.9007 54.6631 44.7853C55.1112 43.6657 55.5594 42.5461 56.0212 41.3925C56.7002 42.7496 56.7002 42.7496 56.5557 43.464C56.4066 43.8136 56.4066 43.8136 56.2546 44.1704C56.1579 44.4061 56.0611 44.6419 55.9615 44.8847C55.6816 45.4639 55.6816 45.4639 55.3421 45.8032C54.6632 45.8329 53.9832 45.8395 53.3037 45.8363C52.6849 45.8347 52.6849 45.8347 52.0537 45.833C51.6193 45.8302 51.1849 45.8273 50.7373 45.8244C50.3017 45.8229 49.866 45.8213 49.4171 45.8198C48.3364 45.8157 47.2557 45.8102 46.175 45.8032C45.7686 44.5847 45.9252 44.3083 46.366 43.1326C46.4941 42.7842 46.6221 42.4357 46.7541 42.0766C46.8991 41.6899 47.0442 41.3032 47.1936 40.9048C47.5086 40.0454 47.8226 39.1858 48.1352 38.3257C48.2206 38.0913 48.306 37.8569 48.394 37.6154C49.5844 34.3321 50.697 31.0219 51.8196 27.715C52.0409 27.0645 52.2622 26.4141 52.4836 25.7636C52.9068 24.5205 53.3298 23.2772 53.7528 22.034C54.4845 19.8834 55.2173 17.7333 55.9575 15.5856C56.1138 15.1265 56.1138 15.1265 56.2733 14.6581C56.3674 14.3864 56.4614 14.1147 56.5583 13.8348C56.6361 13.6082 56.7139 13.3816 56.7941 13.1482C57.0397 12.5532 57.0397 12.5532 57.7188 11.5353Z" fill="#DFECF8"/>
<path d="M104.573 11.875C105.021 11.987 105.469 12.0989 105.931 12.2143C105.951 13.2745 105.963 14.3347 105.974 15.3951C105.979 15.6969 105.985 15.9986 105.991 16.3096C105.994 16.7426 105.994 16.7426 105.997 17.1843C106.003 17.5841 106.003 17.5841 106.008 17.9919C105.931 18.6607 105.931 18.6607 105.252 19.3393C104.365 19.4163 104.365 19.4163 103.255 19.4056C102.859 19.4034 102.463 19.4012 102.054 19.3989C101.639 19.3932 101.224 19.3876 100.796 19.3817C100.378 19.3786 99.9599 19.3756 99.5292 19.3724C98.4942 19.3644 97.4594 19.3532 96.4244 19.3393C96.4295 19.6558 96.4345 19.9724 96.4396 20.2985C96.4865 23.2789 96.5316 26.2594 96.5748 29.24C96.5971 30.7723 96.6201 32.3047 96.6445 33.837C96.6681 35.3153 96.6899 36.7937 96.7106 38.272C96.7187 38.8365 96.7276 39.401 96.737 39.9655C96.7501 40.7551 96.761 41.5447 96.7713 42.3343C96.7757 42.5685 96.7801 42.8028 96.7847 43.0442C96.796 44.0676 96.7516 44.8228 96.4244 45.8036C94.9603 45.8134 93.4961 45.8194 92.0319 45.8248C91.6137 45.8276 91.1955 45.8305 90.7646 45.8334C90.3675 45.8345 89.9703 45.8356 89.5611 45.8367C89.009 45.8394 89.009 45.8394 88.4458 45.8421C87.5969 45.8036 87.5969 45.8036 87.2573 45.4643C87.2199 44.6893 87.2067 43.9131 87.2026 43.1372C87.2009 42.8939 87.1993 42.6506 87.1975 42.3999C87.1925 41.5915 87.1902 40.7831 87.1884 39.9748C87.1864 39.4148 87.1845 38.8548 87.1825 38.2948C87.1789 37.1191 87.177 35.9434 87.1758 34.7677C87.1739 33.2597 87.1658 31.7518 87.1561 30.2439C87.1498 29.0866 87.148 27.9294 87.1475 26.7721C87.1465 26.2161 87.1437 25.6601 87.1393 25.1041C87.1335 24.3267 87.1341 23.5495 87.1363 22.7721C87.1351 22.3293 87.1338 21.8866 87.1326 21.4304C87.2573 20.3571 87.2573 20.3571 88.2759 19.3393C88.2759 27.7366 88.2759 36.1339 88.2759 44.7857C90.6288 44.7857 92.9817 44.7857 95.4059 44.7857C95.2378 44.4498 95.2378 44.4498 95.0664 44.1071C95.0432 43.3275 95.0433 42.5472 95.0536 41.7673C95.0563 41.5267 95.059 41.2861 95.0618 41.0382C95.0713 40.241 95.0833 39.4439 95.0955 38.6468C95.1029 38.0941 95.1102 37.5414 95.1174 36.9886C95.1328 35.8295 95.1496 34.6704 95.1672 33.5113C95.1896 32.0235 95.2091 30.5357 95.2276 29.0478C95.2421 27.9063 95.2582 26.7648 95.2748 25.6233C95.2826 25.0746 95.2899 24.5259 95.2967 23.9772C95.3065 23.2112 95.3183 22.4452 95.3308 21.6792C95.3371 21.2427 95.3434 20.8063 95.3499 20.3566C95.4059 19.3393 95.4059 19.3393 95.7454 18.6607C98.7705 18.6607 101.796 18.6607 104.913 18.6607C104.8 16.4214 104.688 14.1821 104.573 11.875Z" fill="#DDEAFC"/>
<path d="M31.5756 11.5355C33.3101 11.5271 35.0446 11.521 36.7791 11.5169C37.3696 11.5152 37.9601 11.5128 38.5507 11.5099C39.3976 11.5058 40.2446 11.5039 41.0915 11.5024C41.3571 11.5006 41.6227 11.4989 41.8964 11.4971C42.5305 11.497 43.1646 11.5145 43.7984 11.5355C44.1379 11.8748 44.1379 11.8748 44.1788 12.7915C44.178 13.2006 44.1773 13.6097 44.1765 14.0312C44.1765 14.2563 44.1766 14.4814 44.1766 14.7133C44.1764 15.4604 44.1738 16.2076 44.1711 16.9548C44.1705 17.4716 44.17 17.9884 44.1696 18.5052C44.1683 19.8678 44.165 21.2305 44.1613 22.5931C44.1578 23.9826 44.1562 25.3721 44.1545 26.7616C44.1509 29.4898 44.1451 32.218 44.1379 34.9462C43.9139 34.9462 43.6898 34.9462 43.4589 34.9462C43.4589 27.4446 43.4589 19.943 43.4589 12.2141C39.4254 12.326 35.3918 12.438 31.2361 12.5534C31.3481 12.2175 31.4602 11.8816 31.5756 11.5355Z" fill="#EFF7FA"/>
<path d="M59.4164 38.6789C60.2159 38.699 61.016 38.6996 61.8156 38.6882C62.2862 38.6839 62.7568 38.6797 63.2274 38.6756C63.9658 38.6672 64.7042 38.6577 65.4425 38.6464C66.1575 38.6361 66.8724 38.6301 67.5875 38.6246C68.0145 38.6189 68.4414 38.6132 68.8813 38.6073C69.9416 38.6789 69.9416 38.6789 70.9602 39.3575C71.2705 40.2548 71.2705 40.2548 71.5119 41.3296C71.5933 41.6817 71.6747 42.0338 71.7586 42.3965C71.9522 43.3046 72.136 44.2149 72.3183 45.1254C75.0073 45.1254 77.6963 45.1254 80.4668 45.1254C80.3548 45.3493 80.2427 45.5732 80.1273 45.8039C78.7834 45.8236 77.4395 45.8357 76.0955 45.8463C75.7125 45.852 75.3295 45.8577 74.935 45.8636C74.3868 45.8669 74.3868 45.8669 73.8275 45.8702C73.3208 45.8755 73.3208 45.8755 72.8038 45.881C71.9787 45.8039 71.9787 45.8039 71.2997 45.1254C70.9886 44.2721 70.7008 43.4253 70.4297 42.5595C70.0495 41.0085 70.0495 41.0085 69.2626 39.6968C68.3573 39.6667 67.4609 39.6577 66.5557 39.6637C66.1494 39.6644 66.1494 39.6644 65.735 39.6651C64.8666 39.667 63.9983 39.6713 63.1299 39.6756C62.5426 39.6773 61.9553 39.6788 61.368 39.6802C59.9252 39.684 58.4825 39.6898 57.0397 39.6968C56.8157 40.1447 56.5916 40.5925 56.3607 41.0539C56.2546 40.2693 56.2546 40.2693 56.3607 39.3575C57.5319 38.3822 58.0142 38.3258 59.4164 38.6789Z" fill="#ECF4FB"/>
<path d="M95.7453 18.6611C95.9694 18.7731 96.1935 18.8851 96.4244 19.0004C96.3123 27.7336 96.2003 36.4668 96.0849 45.4647C95.7487 45.3527 95.4126 45.2408 95.0663 45.1254C95.0663 41.5409 95.1361 37.9554 95.1815 34.3711C95.2003 32.8864 95.2184 31.4017 95.2351 29.917C95.2513 28.4814 95.2691 27.0459 95.288 25.6105C95.2949 25.0627 95.3013 24.515 95.307 23.9672C95.3152 23.2029 95.3254 22.4385 95.3361 21.6742C95.3414 21.2388 95.3467 20.8034 95.3521 20.3547C95.4058 19.3397 95.4058 19.3397 95.7453 18.6611Z" fill="#DCE4F2"/>
<path d="M151.087 25.7861C151.424 26.0101 151.76 26.234 152.106 26.4647C151.934 26.7908 151.934 26.7908 151.759 27.1234C150.888 28.8115 150.217 30.3898 149.729 32.2326C149.561 32.5824 149.393 32.9323 149.22 33.2928C147.958 36.1558 147.863 39.3688 148.371 42.4111C148.035 42.2992 147.699 42.1872 147.353 42.0718C145.549 36.665 148.861 30.6082 151.087 25.7861Z" fill="#93BDFA"/>
<path d="M75.0345 28.8389C76.0531 29.1782 76.0531 29.1782 76.3537 29.7425C76.4349 29.9868 76.5161 30.2311 76.5997 30.4829C76.7407 30.8973 76.7407 30.8973 76.8845 31.3201C76.9821 31.6205 77.0798 31.9209 77.1804 32.2304C77.2837 32.5371 77.3869 32.8437 77.4933 33.1597C77.8234 34.1427 78.1479 35.1274 78.4722 36.1123C78.8001 37.0956 79.1291 38.0784 79.4583 39.0613C79.663 39.6738 79.8667 40.2866 80.0693 40.8998C80.1612 41.1771 80.253 41.4545 80.3477 41.7403C80.4283 41.9848 80.5089 42.2294 80.592 42.4814C80.8005 43.1121 80.8005 43.1121 81.1459 43.7674C81.1595 44.4459 81.1607 45.1247 81.1459 45.8032C80.6417 45.6352 80.6417 45.6352 80.1274 45.4639C80.2394 45.128 80.3514 44.7921 80.4669 44.446C80.2428 44.446 80.0187 44.446 79.7878 44.446C79.8088 44.2011 79.8299 43.9562 79.8515 43.7038C79.862 42.7398 79.862 42.7398 79.3276 42.0061C78.6572 40.8619 78.292 39.6866 77.9205 38.4237C77.773 37.9386 77.6253 37.4535 77.4775 36.9685C77.4076 36.7366 77.3377 36.5047 77.2656 36.2657C76.5221 33.8078 76.5221 33.8078 75.4801 31.4683C75.0147 30.4938 74.9406 29.9025 75.0345 28.8389Z" fill="#DAE8F9"/>
<path d="M34.6313 24.4287C35.1915 24.4287 35.7517 24.4287 36.3289 24.4287C36.3289 30.6987 36.3289 36.9687 36.3289 43.4287C35.9928 43.5967 35.9928 43.5967 35.6499 43.768C35.5378 37.7219 35.4258 31.6759 35.3104 25.4466C35.0863 25.4466 34.8622 25.4466 34.6313 25.4466C34.5193 25.8944 34.4072 26.3423 34.2918 26.8037C34.0796 26.1888 34.0796 26.1888 33.9523 25.4466C34.1764 25.1107 34.4004 24.7748 34.6313 24.4287Z" fill="#E8EBF2"/>
<path d="M79.7916 11.833C80.1564 11.8348 80.1564 11.8348 80.5286 11.8367C80.7837 11.8367 81.0387 11.8366 81.3015 11.8366C82.1484 11.8368 82.9953 11.8394 83.8422 11.8421C84.4279 11.8427 85.0135 11.8432 85.5992 11.8435C87.1436 11.8448 88.6881 11.8482 90.2326 11.8519C91.8073 11.8554 93.3821 11.8569 94.9569 11.8587C98.0491 11.8623 101.141 11.8681 104.233 11.8752C104.233 11.9872 104.233 12.0992 104.233 12.2145C95.8303 12.2145 87.4271 12.2145 78.7693 12.2145C78.7693 14.1179 78.7693 16.0213 78.7693 17.9824C78.4331 17.7584 78.097 17.5345 77.7507 17.3038C77.6662 16.4181 77.6396 15.6206 77.6658 14.7379C77.6676 14.5011 77.6693 14.2643 77.6711 14.0203C77.7027 11.9871 77.7619 11.8373 79.7916 11.833Z" fill="#EAEEF4"/>
<path d="M63.4907 20.0176C63.8268 20.1295 64.1629 20.2415 64.5093 20.3569C64.6989 20.9268 64.6989 20.9268 64.8488 21.714C65.1981 22.7711 65.5598 23.8235 65.9217 24.8763C66.2069 25.7854 66.2069 25.7854 66.2069 26.464C66.431 26.576 66.655 26.6879 66.8859 26.8033C67.065 27.409 67.065 27.409 67.2042 28.1816C67.5138 29.7261 67.9986 31.1098 68.5835 32.5711C68.044 33.1103 67.4808 32.9681 66.7374 32.9741C66.4647 32.9789 66.192 32.9837 65.9111 32.9886C65.1883 32.9104 65.1883 32.9104 64.5093 32.2319C65.4056 32.2319 66.3019 32.2319 67.2254 32.2319C66.7092 30.6908 66.1897 29.1508 65.6671 27.6118C65.4897 27.0879 65.3132 26.5636 65.1376 26.039C64.8854 25.2861 64.63 24.5344 64.374 23.7829C64.2958 23.5471 64.2176 23.3114 64.137 23.0685C63.7786 21.812 63.7786 21.812 62.8116 21.0354C62.8116 20.8115 62.8116 20.5876 62.8116 20.3569C63.0357 20.2449 63.2598 20.1329 63.4907 20.0176Z" fill="#EAF3FA"/>
<path d="M191.83 28.1611C192.166 28.2731 192.502 28.3851 192.849 28.5004C192.594 30.4513 192.594 30.4513 191.83 31.2147C191.418 32.3232 191.127 33.4682 190.812 34.6076C190.705 34.9461 190.705 34.9461 190.595 35.2914C189.998 37.3078 190.07 39.3056 190.133 41.3933C189.909 41.3933 189.684 41.3933 189.454 41.3933C189.454 41.1693 189.454 40.9454 189.454 40.7147C189.229 40.7147 189.005 40.7147 188.775 40.7147C188.462 36.3439 190.019 32.0768 191.83 28.1611Z" fill="#92BFF9"/>
<path d="M243.438 12.5537C243.662 12.6657 243.886 12.7776 244.117 12.893C244.117 13.7887 244.117 14.6844 244.117 15.6073C244.341 15.7192 244.565 15.8312 244.796 15.9466C244.072 19.2826 242.891 22.0517 240.382 24.4287C240.046 24.3167 239.71 24.2048 239.363 24.0894C239.629 23.6917 239.899 23.2963 240.17 22.9019C240.319 22.6815 240.469 22.4611 240.623 22.234C240.768 22.0625 240.912 21.8911 241.061 21.7144C241.285 21.7144 241.509 21.7144 241.74 21.7144C241.74 21.1546 241.74 20.5948 241.74 20.018C241.964 19.906 242.188 19.7941 242.419 19.6787C243.073 18.132 243.233 16.6305 243.31 14.9711C243.323 14.7376 243.337 14.504 243.35 14.2634C243.382 13.6936 243.41 13.1237 243.438 12.5537Z" fill="#9AC5FC"/>
<path d="M87.9364 19.3389C88.0484 19.3389 88.1604 19.3389 88.2759 19.3389C88.2759 27.5123 88.2759 35.6857 88.2759 44.1067C88.1638 44.1067 88.0518 44.1067 87.9364 44.1067C87.8243 38.0607 87.7123 32.0146 87.5968 25.7853C87.4848 25.7853 87.3728 25.7853 87.2573 25.7853C87.239 24.9016 87.2255 24.0184 87.2149 23.1346C87.2092 22.8842 87.2035 22.6338 87.1976 22.3759C87.1858 21.065 87.1915 20.4554 87.9364 19.3389Z" fill="#DEE9F7"/>
<path d="M170.44 29.1787C170.552 29.1787 170.664 29.1787 170.78 29.1787C171.034 30.0693 171.034 30.0693 171.119 31.2144C170.525 32.1899 170.525 32.1899 169.761 33.2501C168.534 35.7493 168.506 38.3203 168.403 41.0537C167.385 40.3751 167.385 40.3751 167.225 39.7695C167.183 36.6594 168.024 32.801 169.761 30.1966C169.985 30.1966 170.209 30.1966 170.44 30.1966C170.44 29.8607 170.44 29.5248 170.44 29.1787Z" fill="#95C3FA"/>
<path d="M130.037 33.9287C130.149 33.9287 130.261 33.9287 130.377 33.9287C130.377 37.8475 130.377 41.7662 130.377 45.8037C130.041 45.6917 129.704 45.5798 129.358 45.4644C129.358 42.3294 129.358 39.1944 129.358 35.9644C129.582 35.9644 129.806 35.9644 130.037 35.9644C130.037 35.2926 130.037 34.6209 130.037 33.9287Z" fill="#CCDBF7"/>
<path d="M249.889 23.4111C249.889 23.635 249.889 23.8589 249.889 24.0896C249.216 24.0896 248.544 24.0896 247.851 24.0896C247.764 24.2838 247.676 24.478 247.586 24.6781C247.134 25.5185 246.612 26.1708 245.984 26.8887C245.778 27.1284 245.571 27.3681 245.358 27.615C244.796 28.1611 244.796 28.1611 244.117 28.1611C244.026 28.378 243.935 28.5949 243.841 28.8184C243.438 29.5182 243.438 29.5182 242.419 29.8575C242.419 30.0814 242.419 30.3053 242.419 30.5361C241.74 31.0874 241.74 31.0874 241.061 31.5539C240.837 31.4419 240.613 31.33 240.382 31.2146C242.06 29.3206 243.763 27.4763 245.569 25.7039C246.275 24.9837 246.888 24.2025 247.512 23.4111C248.417 22.9587 248.927 23.1834 249.889 23.4111Z" fill="#97C4FB"/>
<path d="M78.7692 12.5537C78.8812 12.5537 78.9933 12.5537 79.1087 12.5537C79.1087 14.4571 79.1087 16.3605 79.1087 18.3216C83.6464 18.4895 83.6464 18.4895 88.2758 18.6609C88.3879 18.8848 88.4999 19.1087 88.6153 19.3394C88.3912 19.3394 88.1672 19.3394 87.9363 19.3394C87.8242 19.6753 87.7122 20.0112 87.5968 20.3573C87.4847 20.0214 87.3727 19.6855 87.2572 19.3394C87.0054 19.3448 86.7537 19.3501 86.4942 19.3556C85.3551 19.3767 84.2161 19.39 83.0769 19.403C82.4824 19.4158 82.4824 19.4158 81.8759 19.4289C81.4963 19.4322 81.1166 19.4354 80.7254 19.4388C80.3751 19.4442 80.0249 19.4495 79.664 19.455C78.7692 19.3394 78.7692 19.3394 78.1376 18.8243C78.0099 18.6584 77.8822 18.4925 77.7506 18.3216C77.9187 17.8177 77.9187 17.8177 78.0901 17.3037C78.2022 17.4157 78.3142 17.5276 78.4297 17.643C78.5417 15.9635 78.6537 14.2841 78.7692 12.5537Z" fill="#ECF5FD"/>
<path d="M56.0212 41.3926C56.7002 42.7497 56.7002 42.7497 56.5557 43.4641C56.4563 43.6972 56.357 43.9303 56.2546 44.1705C56.1579 44.4062 56.0612 44.642 55.9615 44.8848C55.6817 45.464 55.6817 45.464 55.3422 45.8033C54.6632 45.833 53.9833 45.8396 53.3037 45.8364C52.8912 45.8353 52.4787 45.8342 52.0537 45.8331C51.6193 45.8303 51.1849 45.8274 50.7374 45.8245C50.3017 45.823 49.866 45.8214 49.4171 45.8199C48.3364 45.8158 47.2557 45.8103 46.175 45.8033C46.175 45.5794 46.175 45.3554 46.175 45.1247C50.3766 44.9568 50.3766 44.9568 54.6631 44.7854C55.1113 43.6658 55.5595 42.5461 56.0212 41.3926Z" fill="#E8F4FD"/>
<path d="M57.7188 11.5361C61.6403 11.5361 65.5618 11.5361 69.6021 11.5361C69.6021 11.872 69.6021 12.2079 69.6021 12.554C69.2559 12.5522 68.9098 12.5504 68.5532 12.5486C67.2712 12.5425 65.9893 12.5386 64.7074 12.5354C64.1521 12.5336 63.5968 12.5313 63.0416 12.5284C62.2443 12.5243 61.4471 12.5224 60.6498 12.5209C60.4008 12.5191 60.1518 12.5174 59.8953 12.5156C58.5943 12.4918 58.5943 12.4918 57.3793 12.8933C57.4913 12.4454 57.6034 11.9976 57.7188 11.5361Z" fill="#EBF6FA"/>
<path d="M185.04 7.46466C186.424 8.2425 186.956 9.01218 187.416 10.5182C186.101 9.92448 186.101 9.92448 185.719 9.16109C185.383 9.04913 185.047 8.93716 184.7 8.82181C184.7 8.59788 184.7 8.37395 184.7 8.14323C183.804 8.14323 182.908 8.14323 181.984 8.14323C181.984 8.36716 181.984 8.59109 181.984 8.82181C181.554 9.05051 181.122 9.27611 180.69 9.50038C180.449 9.62634 180.209 9.7523 179.961 9.88207C179.268 10.1789 179.268 10.1789 178.249 10.1789C180.372 7.93651 181.917 7.00275 185.04 7.46466Z" fill="#99C5FA"/>
<path d="M188.095 20.0176C188.432 20.1295 188.768 20.2415 189.114 20.3569C188.647 21.0354 188.647 21.0354 188.095 21.714C187.871 21.714 187.647 21.714 187.416 21.714C187.304 22.0499 187.192 22.3858 187.077 22.7319C186.853 22.7319 186.629 22.7319 186.398 22.7319C186.307 23.0398 186.216 23.3477 186.122 23.6649C185.752 24.6759 185.426 25.3396 184.7 26.1247C184.476 26.1247 184.252 26.1247 184.021 26.1247C183.909 26.3486 183.797 26.5726 183.682 26.8033C183.57 26.5794 183.458 26.3554 183.342 26.1247C184.021 24.415 185.042 23.2317 186.292 21.9261C186.465 21.7411 186.639 21.5561 186.818 21.3654C187.241 20.9142 187.668 20.4656 188.095 20.0176Z" fill="#9AC4FA"/>
<path d="M17.9948 14.25C18.3309 14.362 18.667 14.4739 19.0133 14.5893C19.3471 15.2753 19.3471 15.2753 19.6327 16.1717C19.7886 16.6592 19.7886 16.6592 19.9477 17.1565C20.0525 17.4989 20.1573 17.8414 20.2653 18.1942C20.3741 18.5288 20.4828 18.8634 20.5949 19.2081C21.1594 21.0099 21.5303 22.5401 21.39 24.4286C20.7387 23.4523 20.4201 22.6702 20.0505 21.5658C19.8699 21.0266 19.8699 21.0266 19.6857 20.4764C19.5619 20.1012 19.438 19.7259 19.3104 19.3393C19.1839 18.964 19.0574 18.5888 18.9271 18.2021C18.7479 17.6629 18.7479 17.6629 18.565 17.1127C18.4556 16.7834 18.3461 16.4541 18.2333 16.1147C17.9948 15.2679 17.9948 15.2679 17.9948 14.25Z" fill="#D5E5F9"/>
<path d="M28.8594 43.4287C29.0835 43.5407 29.3075 43.6526 29.5384 43.768C29.2023 44.4398 28.8662 45.1116 28.5198 45.8037C25.8308 45.8037 23.1418 45.8037 20.3713 45.8037C20.1472 45.3559 19.9231 44.908 19.6923 44.4466C20.1404 44.3346 20.5886 44.2226 21.0504 44.1073C21.0504 44.4432 21.0504 44.7791 21.0504 45.1251C24.5797 44.9572 24.5797 44.9572 28.1803 44.7859C28.4044 44.338 28.6285 43.8901 28.8594 43.4287Z" fill="#E9F8FE"/>
<path d="M61.114 26.4639C61.3381 26.6878 61.5622 26.9117 61.7931 27.1424C61.2329 28.8219 60.6727 30.5014 60.0955 32.2317C60.9918 32.2317 61.8882 32.2317 62.8117 32.2317C62.8117 32.3437 62.8117 32.4557 62.8117 32.571C61.5792 32.683 60.3467 32.7949 59.0769 32.9103C59.6152 27.9617 59.6152 27.9617 61.114 26.4639Z" fill="#E8F1FA"/>
<path d="M129.698 11.5356C131.105 11.5258 132.513 11.5197 133.92 11.5144C134.523 11.5101 134.523 11.5101 135.139 11.5058C135.52 11.5047 135.902 11.5036 136.296 11.5025C136.65 11.5007 137.003 11.4989 137.368 11.4971C138.186 11.5356 138.186 11.5356 138.525 11.8749C138.55 12.5035 138.554 13.1331 138.546 13.7622C138.543 14.1055 138.54 14.4488 138.537 14.8025C138.533 15.068 138.529 15.3335 138.525 15.607C138.413 15.607 138.301 15.607 138.186 15.607C138.169 15.3905 138.152 15.174 138.135 14.951C138.11 14.6706 138.085 14.3903 138.058 14.1014C138.035 13.822 138.011 13.5425 137.987 13.2545C137.94 13.0232 137.894 12.7918 137.846 12.5534C137.031 12.1462 136.547 12.1849 135.639 12.2049C135.338 12.209 135.037 12.2132 134.727 12.2175C134.09 12.2294 133.454 12.2427 132.817 12.2572C132.365 12.2628 132.365 12.2628 131.905 12.2685C131.628 12.2742 131.351 12.2799 131.066 12.2858C130.377 12.2142 130.377 12.2142 129.698 11.5356Z" fill="#ECF5FB"/>
<path d="M235.629 10.8574C236.077 10.8574 236.525 10.8574 236.987 10.8574C237.456 11.6917 237.795 12.3129 238.005 13.2324C237.682 14.2104 237.391 14.8912 236.881 15.7559C236.763 15.9717 236.645 16.1875 236.523 16.4099C236.233 16.9385 235.932 17.4611 235.629 17.9824C235.182 16.6433 235.565 15.7037 235.947 14.3987C236.448 12.822 236.448 12.822 236.647 11.1967C236.311 11.0847 235.975 10.9728 235.629 10.8574Z" fill="#9AC5FA"/>
<path d="M232.573 6.78613C232.461 7.23399 232.349 7.68185 232.233 8.14328C231.848 8.16427 231.463 8.18526 231.066 8.20689C229.523 8.38834 228.411 9.01473 227.101 9.81982C226.462 10.179 226.462 10.179 225.782 10.179C226.122 9.16113 226.122 9.16113 227.011 8.62835C227.376 8.45428 227.741 8.28021 228.117 8.10086C228.48 7.92505 228.843 7.74923 229.217 7.56808C230.463 7.00495 231.186 6.78613 232.573 6.78613Z" fill="#97C3FC"/>
<path d="M243.438 12.5537C243.662 12.6657 243.886 12.7776 244.117 12.893C244.117 13.7887 244.117 14.6844 244.117 15.6073C244.341 15.7192 244.565 15.8312 244.796 15.9466C244.351 17.3832 243.796 18.686 243.098 20.018C242.874 19.906 242.65 19.7941 242.419 19.6787C242.581 19.2575 242.581 19.2575 242.745 18.8278C243.13 17.5349 243.248 16.3088 243.31 14.9711C243.323 14.7376 243.337 14.504 243.35 14.2634C243.382 13.6936 243.41 13.1237 243.438 12.5537Z" fill="#91BEF8"/>
<path d="M220.69 31.2139C221.026 31.2139 221.362 31.2139 221.708 31.2139C222.189 32.175 222.165 33.0713 222.239 34.1402C222.267 34.5435 222.296 34.9467 222.325 35.3622C222.346 35.6727 222.366 35.9832 222.387 36.3032C221.939 36.3032 221.491 36.3032 221.029 36.3032C220.917 34.6237 220.805 32.9442 220.69 31.2139Z" fill="#97C5F9"/>
<path d="M78.0902 12.5537C78.3143 12.5537 78.5384 12.5537 78.7692 12.5537C78.7692 14.3451 78.7692 16.1366 78.7692 17.9823C78.4331 17.7584 78.097 17.5344 77.7507 17.3037C77.6393 16.2845 77.6393 16.2845 77.6658 15.0771C77.6737 14.4782 77.6737 14.4782 77.6817 13.8671C77.7507 12.893 77.7507 12.893 78.0902 12.5537Z" fill="#CDDCF5"/>
<path d="M168.403 35.2861C168.929 36.3372 168.686 37.4108 168.594 38.5518C168.576 38.7914 168.559 39.0311 168.54 39.278C168.496 39.8702 168.45 40.4621 168.403 41.054C168.067 40.8301 167.731 40.6061 167.385 40.3754C167.1 38.7976 167.201 37.3639 167.894 35.9223C168.062 35.7124 168.23 35.5024 168.403 35.2861Z" fill="#8EBBF8"/>
<path d="M200.997 30.875C201.315 31.8964 201.352 32.1868 200.997 33.25C200.974 33.7797 200.968 34.3103 200.976 34.8404C200.979 35.1146 200.982 35.3889 200.985 35.6714C200.989 35.88 200.993 36.0886 200.997 36.3036C201.333 36.4155 201.67 36.5275 202.016 36.6429C201.68 36.7548 201.344 36.8668 200.997 36.9821C199.979 36.3036 199.979 36.3036 199.844 35.6528C199.863 33.8042 200.155 32.5243 200.997 30.875Z" fill="#93C2F4"/>
<path d="M21.3899 23.4111C22.0538 24.4063 22.3382 25.1555 22.6631 26.2951C22.7594 26.6205 22.8557 26.9459 22.9549 27.2811C23.0875 28.1611 23.0875 28.1611 22.4085 29.179C20.7866 25.2699 20.7866 25.2699 21.3899 23.4111Z" fill="#E2ECF9"/>
<path d="M62.1326 21.7139C62.4687 21.8258 62.8048 21.9378 63.1511 22.0532C63.0457 22.541 62.9395 23.0287 62.8328 23.5163C62.7738 23.7879 62.7147 24.0595 62.6538 24.3394C62.4721 25.1067 62.4721 25.1067 62.1326 26.1246C61.7965 26.1246 61.4603 26.1246 61.114 26.1246C61.3931 24.6374 61.7596 23.1798 62.1326 21.7139Z" fill="#E3F1FA"/>
<path d="M220.69 44.7859C220.69 45.0098 220.69 45.2337 220.69 45.4644C221.922 45.4644 223.155 45.4644 224.424 45.4644C224.424 45.5764 224.424 45.6884 224.424 45.8037C222.296 45.8037 220.167 45.8037 217.974 45.8037C217.974 45.5798 217.974 45.3559 217.974 45.1252C218.968 44.794 219.656 44.758 220.69 44.7859Z" fill="#ADD8FE"/>
<path d="M192.849 44.7861C193.45 44.7769 194.051 44.7703 194.652 44.7649C194.987 44.7609 195.322 44.757 195.667 44.7529C196.584 44.7861 196.584 44.7861 197.602 45.1253C197.602 45.3493 197.602 45.5732 197.602 45.8039C196.033 45.8039 194.465 45.8039 192.849 45.8039C192.849 45.468 192.849 45.1321 192.849 44.7861Z" fill="#AFD8FE"/>
<path d="M250.228 24.4287C250.452 24.5407 250.676 24.6526 250.907 24.768C251.334 26.5033 251.334 26.5033 251.247 27.4823C250.419 28.3305 250.419 28.3305 249.549 28.8394C249.437 28.5035 249.325 28.1676 249.209 27.8216C249.434 27.8216 249.658 27.8216 249.889 27.8216C249.889 27.4857 249.889 27.1498 249.889 26.8037C250.113 26.8037 250.337 26.8037 250.568 26.8037C250.568 26.2439 250.568 25.6841 250.568 25.1073C250.343 24.9953 250.119 24.8834 249.889 24.768C250.001 24.656 250.113 24.5441 250.228 24.4287Z" fill="#96C3FA"/>
<path d="M194.886 23.4111C195.098 24.0473 195.098 24.0473 195.225 24.7683C195.001 24.9922 194.777 25.2161 194.546 25.4468C194.296 25.8508 194.056 26.2613 193.825 26.6768C193.51 27.2436 193.51 27.2436 193.188 27.8218C192.849 27.1433 192.849 27.1433 193.038 26.409C193.137 26.1335 193.235 25.858 193.337 25.5741C193.434 25.2968 193.532 25.0195 193.633 24.7338C193.71 24.5213 193.788 24.3087 193.867 24.0897C194.203 24.0897 194.54 24.0897 194.886 24.0897C194.886 23.8658 194.886 23.6418 194.886 23.4111Z" fill="#97C3F5"/>
<path d="M171.459 44.7859C172.647 44.6586 172.647 44.6586 173.835 44.7859C174.06 45.1217 174.284 45.4576 174.515 45.8037C173.282 45.8037 172.05 45.8037 170.78 45.8037C171.004 45.4678 171.228 45.1319 171.459 44.7859Z" fill="#AFD9FE"/>
<path d="M224.764 10.5176C224.764 11.5354 224.764 11.5354 224.244 12.0801C224.023 12.2573 223.803 12.4344 223.576 12.6169C223.355 12.7967 223.134 12.9764 222.907 13.1616C222.736 13.2968 222.564 13.4319 222.387 13.5711C222.275 13.3472 222.163 13.1233 222.048 12.8926C222.859 11.7923 223.475 11.0234 224.764 10.5176Z" fill="#97C3FC"/>
<path d="M228.838 44.1071C229.062 44.3311 229.286 44.555 229.517 44.7857C228.562 45.019 228.562 45.019 227.48 45.125C226.844 44.6373 226.844 44.6373 226.462 44.1071C227.38 43.6481 227.865 43.8396 228.838 44.1071Z" fill="#A7D5FE"/>
<path d="M58.0583 38.3389C58.3944 38.5628 58.7306 38.7867 59.0769 39.0174C58.5937 39.1434 58.5937 39.1434 58.1008 39.2719C57.0102 39.5894 57.0102 39.5894 56.5729 40.417C56.5029 40.6269 56.4329 40.8369 56.3607 41.0532C56.2546 40.2686 56.2546 40.2686 56.3607 39.3567C57.2095 38.7418 57.2095 38.7418 58.0583 38.3389Z" fill="#EAF3F6"/>
<path d="M34.6313 24.4287C35.0795 24.4287 35.5277 24.4287 35.9894 24.4287C35.8774 24.7646 35.7653 25.1005 35.6499 25.4466C35.3138 25.4466 34.9776 25.4466 34.6313 25.4466C34.5193 25.8944 34.4072 26.3423 34.2918 26.8037C34.0796 26.1888 34.0796 26.1888 33.9523 25.4466C34.1764 25.1107 34.4004 24.7748 34.6313 24.4287Z" fill="#E9ECF2"/>
<path d="M206.769 9.16113C207.442 9.16113 208.114 9.16113 208.806 9.16113C209.031 9.83292 209.255 10.5047 209.485 11.1968C208.346 10.6654 207.658 10.0489 206.769 9.16113Z" fill="#97C6FA"/>
<path d="M19.3528 42.4111C19.6889 42.4111 20.025 42.4111 20.3714 42.4111C20.4834 43.1949 20.5954 43.9786 20.7109 44.7861C20.3747 44.6742 20.0386 44.5622 19.6923 44.4468C19.5803 43.7751 19.4682 43.1033 19.3528 42.4111Z" fill="#E6F0F8"/>
<path d="M231.215 22.7324C231.327 22.9564 231.439 23.1803 231.554 23.411C230.546 24.2507 230.546 24.2507 229.517 25.1074C229.293 24.9955 229.069 24.8835 228.838 24.7681C230.069 23.1141 230.069 23.1141 231.215 22.7324Z" fill="#98C5F9"/>
<path d="M191.151 30.875C191.375 31.0989 191.599 31.3229 191.83 31.5536C191.494 32.4493 191.158 33.345 190.812 34.2679C190.588 34.2679 190.363 34.2679 190.133 34.2679C190.387 32.0201 190.387 32.0201 191.151 30.875Z" fill="#8FBCF7"/>
<path d="M209.485 11.1963C210.504 11.8749 210.504 11.8749 210.678 12.5349C210.733 13.2196 210.788 13.9044 210.843 14.5891C210.078 13.824 209.833 13.2304 209.485 12.2141C209.485 11.8783 209.485 11.5424 209.485 11.1963Z" fill="#96C4F6"/>
<path d="M235.629 10.8574C236.077 10.8574 236.525 10.8574 236.987 10.8574C237.666 11.8753 237.666 11.8753 237.538 12.7871C237.468 13.046 237.398 13.3049 237.326 13.5717C236.83 12.6735 236.647 12.2504 236.647 11.1967C236.311 11.0847 235.975 10.9728 235.629 10.8574Z" fill="#93BEF6"/>
</svg>
